<svg xmlns="http://www.w3.org/2000/svg" width="177.827" height="38.098" viewBox="0 0 177.827 38.098"><defs><style>.a{fill:#666;}.b{fill:#005ca7;}.c{fill:#1ccad8;}</style></defs><g transform="translate(0 -0.965)"><path class="a" d="M2.157,11.706a.794.794,0,0,0,.806-.806.778.778,0,0,0-.806-.806.806.806,0,0,0,0,1.612Zm2,0a.788.788,0,0,0,.78-.806.772.772,0,0,0-.78-.806.788.788,0,0,0-.78.806A.772.772,0,0,0,4.16,11.706Zm10.351,8.347a.772.772,0,0,0-.78-.806.788.788,0,0,0-.78.806.78.78,0,1,0,1.56,0Zm-1.975,0a.779.779,0,0,0-.807-.806.788.788,0,0,0-.78.806.794.794,0,1,0,1.587,0Zm13.937,0a.778.778,0,0,0-.806-.806.788.788,0,0,0-.78.806.793.793,0,1,0,1.586,0Zm1.978,0a.772.772,0,0,0-.78-.806.788.788,0,0,0-.78.806.78.78,0,1,0,1.56,0Zm17.216-8.347a.788.788,0,0,0,.78-.806.772.772,0,0,0-.78-.806.806.806,0,0,0,0,1.612Zm-1.975,0A.794.794,0,0,0,44.5,10.9a.778.778,0,0,0-.806-.806.787.787,0,0,0-.78.806A.772.772,0,0,0,43.692,11.706Z"/><path class="a" d="M48.009,18.26h2.938V9.78H49.361v7.2H45.694v-4.37H44.108v4.4H40.493a3.112,3.112,0,0,1-1.326-.312,3.083,3.083,0,0,0,1.222-2.315c0-1.04-.754-1.976-2.523-1.976a6.448,6.448,0,0,0-3.458,1.326l-.13,1.118A6.474,6.474,0,0,1,36.8,16.594a9.318,9.318,0,0,1-2.808.364H32.56V9.78H30.974v7.2H28.5v-4.37H26.917v4.4H23.848V15.32c0-1.743-.832-2.861-2.782-2.861A2.9,2.9,0,0,0,18,15.579c0,1.093-.312,1.43-.91,1.43H14.565V12.615H12.98V17.01H5.827V12.875a7.75,7.75,0,0,0-2.5-.416A2.88,2.88,0,0,0,.158,15.475c0,1.717.884,2.783,3.225,2.783H17.036a1.65,1.65,0,0,0,1.586-.936c.364.6,1.067.936,2.47.936h12.8a9.462,9.462,0,0,0,3.953-.754,4.225,4.225,0,0,0,2.471.754h7.7ZM4.293,17.01h-.78c-1.248,0-1.794-.6-1.794-1.69a1.432,1.432,0,0,1,1.43-1.612,3.074,3.074,0,0,1,1.144.208v3.095Zm18,0h-1.04c-1.248,0-1.69-.52-1.69-1.586,0-1.014.52-1.716,1.4-1.716s1.326.52,1.326,1.794v1.509ZM38.1,15.97a9.333,9.333,0,0,0-2.21-1.664,3.8,3.8,0,0,1,1.82-.728c.78,0,1.145.442,1.145,1.014a1.825,1.825,0,0,1-.755,1.379ZM54.534,9.781H52.947v8.478h1.587ZM67.2,21.12V18.26h6.138V12.616H71.75v4.395H67.225V12.876A7.818,7.818,0,0,0,64.7,12.46a2.879,2.879,0,0,0-3.172,3.017c0,1.716.858,2.782,3.2,2.782h.937v1.69s-1.04.079-2.107.079c-2.99,0-3.927-.755-3.927-2.6a8.836,8.836,0,0,1,.338-2.262l-1.638.312a8.748,8.748,0,0,0-.286,2.132c0,2.5,1.482,3.667,5.28,3.667C64.885,21.25,67.2,21.12,67.2,21.12Zm-2.315-4.109c-1.248,0-1.794-.6-1.794-1.69a1.446,1.446,0,0,1,1.43-1.613,2.853,2.853,0,0,1,1.119.208v3.1h-.755Zm-1.327-5.305a.794.794,0,0,0,.806-.806.778.778,0,0,0-.806-.806.788.788,0,0,0-.78.806A.757.757,0,0,0,63.557,11.706Zm1.977,0a.788.788,0,0,0,.78-.806.772.772,0,0,0-.78-.806.806.806,0,0,0,0,1.612Zm6.191,8.347a.772.772,0,0,0,.78.806.788.788,0,0,0,.78-.806.772.772,0,0,0-.78-.806A.788.788,0,0,0,71.725,20.053Z"/><path class="a" d="M69.72,20.053a.773.773,0,0,0,.78.806.794.794,0,0,0,.807-.806.778.778,0,0,0-.806-.806.805.805,0,0,0-.78.806Zm14.33-1.794h9.44a21.269,21.269,0,0,0,.156-2.887c0-1.794-.78-2.913-2.444-2.913a3.407,3.407,0,0,0-3.1,2.237,10.51,10.51,0,0,0,.13-1.769V9.807H86.651v7.2H80.33V12.875a7.75,7.75,0,0,0-2.5-.416,2.88,2.88,0,0,0-3.173,3.017c0,1.716.884,2.783,3.225,2.783h.936v.181c0,1.119-.832,1.587-2.08,1.587a9.9,9.9,0,0,1-1.873-.208l-.1,1.3a12.824,12.824,0,0,0,1.82.156c2.68,0,3.771-1.352,3.771-2.99v-.026H84.05Zm6.84-4.526c.858,0,1.144.677,1.144,1.82,0,.443-.026.99-.052,1.457H88.237c.312-1.69,1.378-3.277,2.653-3.277ZM78.77,17.01h-.78c-1.248,0-1.795-.6-1.795-1.69a1.433,1.433,0,0,1,1.43-1.613,3.076,3.076,0,0,1,1.145.208Zm22.078-5.3a.788.788,0,0,0,.78-.806.772.772,0,0,0-.78-.806.788.788,0,0,0-.78.806A.772.772,0,0,0,100.848,11.706Zm-2,0a.794.794,0,0,0,.806-.806.778.778,0,0,0-.806-.806.806.806,0,0,0,0,1.612ZM124.88,18.26h1.482a1.651,1.651,0,0,0,1.586-.937c.365.6,1.067.936,2.471.936h2.731V15.321c0-1.743-.833-2.861-2.783-2.861a2.9,2.9,0,0,0-3.069,3.12c0,1.093-.312,1.431-.91,1.431h-2.522v-4.4h-1.587v4.4h-3.927c.026-.546.052-1.092.052-1.638,0-1.8-.78-2.913-2.444-2.913a3.408,3.408,0,0,0-3.1,2.236,10.5,10.5,0,0,0,.13-1.768v-.312h-1.586v4.4h-8.894V12.876a7.752,7.752,0,0,0-2.5-.416,2.879,2.879,0,0,0-3.172,3.017c0,1.716.884,2.782,3.224,2.782h24.81Zm5.383-4.552c.884,0,1.326.52,1.326,1.8v1.508h-1.04c-1.248,0-1.69-.52-1.69-1.586.026-1.015.546-1.717,1.4-1.717Zm-29.282,3.3H100.2c-1.248,0-1.794-.6-1.794-1.69a1.432,1.432,0,0,1,1.43-1.613,3.076,3.076,0,0,1,1.145.208Zm15.785,0h-3.745c.312-1.69,1.379-3.277,2.653-3.277.858,0,1.144.676,1.144,1.82,0,.417-.026.963-.052,1.457Zm6.32-5.409a.832.832,0,1,0-.832-.832A.838.838,0,0,0,123.086,11.6ZM6.19,22.653H0V23.9H2.419v6.4H3.77V23.9H6.188V22.653Z"/><path class="a" d="M9.6,27.8a1.294,1.294,0,0,1-1.3,1.43c-.78,0-1.223-.494-1.223-1.4v-3.3H5.746v3.667A1.971,1.971,0,0,0,7.8,30.4a2.063,2.063,0,0,0,1.794-1.014v.885h1.326V24.526H9.6V27.8Zm9.077-3.277L17.5,28.479l-1.274-3.953H15.083L13.81,28.48l-1.144-3.953H11.314l1.846,5.826h1.2l1.3-3.953,1.275,3.953h1.2L20,24.527H18.673Zm3.9-.051a5.024,5.024,0,0,0-2.185.468l.338,1.04a4.2,4.2,0,0,1,1.639-.364c.936,0,1.43.442,1.43,1.248V27a5.193,5.193,0,0,0-1.56-.234c-1.405,0-2.367.6-2.367,1.846v.026A1.837,1.837,0,0,0,21.9,30.4a2.326,2.326,0,0,0,1.872-.832V30.3h1.3V26.893a2.4,2.4,0,0,0-.624-1.768,2.337,2.337,0,0,0-1.872-.65Zm1.274,3.744c0,.729-.676,1.223-1.534,1.223-.625,0-1.119-.312-1.119-.884v-.026c0-.6.494-.963,1.353-.963a3.633,3.633,0,0,1,1.3.234ZM27.41,22.4H25.98v1.248h1.43Zm-.052,2.131H26.03V30.3h1.327V24.526Zm5.3.91a2.363,2.363,0,0,0-1.977-1.014,2.759,2.759,0,0,0-2.678,2.99v.027a2.774,2.774,0,0,0,2.678,2.99,2.308,2.308,0,0,0,1.977-1.092v2.7h1.326V24.526H32.663Zm.026,2a1.673,1.673,0,1,1-3.329,0v-.026a1.694,1.694,0,0,1,1.665-1.847A1.732,1.732,0,0,1,32.689,27.439ZM40.1,24.422a2.856,2.856,0,0,0-2.809,2.99v.027a3.011,3.011,0,0,0,5.331,1.9l-.78-.676a2.106,2.106,0,0,1-1.56.676,1.616,1.616,0,0,1-1.665-1.456h4.24c0-.13.025-.26.025-.364-.026-1.665-.936-3.095-2.782-3.095Zm-1.509,2.6a1.556,1.556,0,0,1,1.483-1.508,1.482,1.482,0,0,1,1.456,1.508H38.59Zm8.142-.727H43.508v1.3h3.224V26.3ZM49.2,22.653H47.852V30.3h5.357V29.078H49.2V22.654Zm6.968,1.769a2.856,2.856,0,0,0-2.809,2.99v.027a3.011,3.011,0,0,0,5.331,1.9l-.78-.676a2.106,2.106,0,0,1-1.56.676,1.615,1.615,0,0,1-1.664-1.456h4.239c0-.13.026-.26.026-.364-.026-1.665-.963-3.095-2.783-3.095Zm-1.508,2.6a1.556,1.556,0,0,1,1.482-1.508A1.482,1.482,0,0,1,57.6,27.022Zm7.152-2.547a5.027,5.027,0,0,0-2.185.468l.338,1.04a4.2,4.2,0,0,1,1.639-.364c.936,0,1.43.442,1.43,1.248V27a5.193,5.193,0,0,0-1.56-.234c-1.4,0-2.367.6-2.367,1.846v.026A1.838,1.838,0,0,0,61.14,30.4a2.326,2.326,0,0,0,1.872-.832V30.3h1.3V26.893a2.4,2.4,0,0,0-.624-1.768A2.337,2.337,0,0,0,61.816,24.475Zm1.274,3.744c0,.729-.676,1.223-1.534,1.223-.624,0-1.118-.312-1.118-.884v-.026c0-.6.494-.963,1.352-.963a3.633,3.633,0,0,1,1.3.234Zm3.484-2.393v-1.3H65.248V30.3h1.326V28.115c0-1.535.806-2.289,1.977-2.289h.078v-1.4A2.067,2.067,0,0,0,66.574,25.826Zm5.514-1.4a2.067,2.067,0,0,0-1.795,1.014v-.884H68.967v5.773h1.326v-3.25a1.293,1.293,0,0,1,1.3-1.43c.78,0,1.223.52,1.223,1.4v3.277h1.326V26.632A2,2,0,0,0,72.088,24.422ZM76.43,22.4H75v1.248h1.43Zm-.051,2.131H75.053V30.3h1.326Zm4.084-.1a2.067,2.067,0,0,0-1.795,1.014v-.884H77.342v5.773h1.326v-3.25a1.293,1.293,0,0,1,1.3-1.43c.78,0,1.223.52,1.223,1.4v3.277h1.326V26.632A1.971,1.971,0,0,0,80.463,24.422Zm7.28.988a2.446,2.446,0,0,0-2.028-.988,2.6,2.6,0,0,0-2.627,2.7v.026a2.6,2.6,0,0,0,2.627,2.7,2.379,2.379,0,0,0,2.028-1.066v.442A1.619,1.619,0,0,1,85.923,31a3.96,3.96,0,0,1-2.055-.6l-.494.988a5.062,5.062,0,0,0,2.575.677,3.245,3.245,0,0,0,2.366-.78,2.988,2.988,0,0,0,.728-2.185V24.526H87.717v.884h.026Zm.026,1.716a1.617,1.617,0,0,1-1.69,1.587,1.573,1.573,0,0,1-1.639-1.587V27.1a1.557,1.557,0,0,1,1.639-1.586,1.638,1.638,0,0,1,1.69,1.613Zm8.087-4.473H92.84V30.3h1.352V27.856H95.7c1.69,0,3.042-.885,3.042-2.6v-.026c0-1.56-1.118-2.575-2.886-2.575Zm1.535,2.627c0,.806-.624,1.352-1.639,1.352h-1.56V23.876h1.56c.989,0,1.639.468,1.639,1.4Zm3.174-2.938H99.238V30.3h1.327Zm3.276,2.133a5.019,5.019,0,0,0-2.184.468l.338,1.04a4.2,4.2,0,0,1,1.638-.364c.936,0,1.431.442,1.431,1.248V27a5.2,5.2,0,0,0-1.561-.234c-1.4,0-2.366.6-2.366,1.846v.026a1.837,1.837,0,0,0,2.028,1.769,2.33,2.33,0,0,0,1.873-.832V30.3h1.3V26.893a2.4,2.4,0,0,0-.624-1.768,2.338,2.338,0,0,0-1.873-.65Zm1.275,3.744c0,.729-.677,1.223-1.535,1.223-.624,0-1.118-.312-1.118-.884v-.026c0-.6.494-.963,1.352-.963a3.639,3.639,0,0,1,1.3.234v.416Zm3.614-5.253H107.4v1.586h-.728V25.67h.728v3.043c0,1.274.676,1.69,1.664,1.69a2.4,2.4,0,0,0,1.2-.286V29.025a1.774,1.774,0,0,1-.807.208c-.442,0-.7-.208-.7-.728V25.67h1.561V24.526h-1.561v-1.56h-.026Zm5.331,1.612h-1.535v-.312c0-.6.261-.884.755-.884a2.581,2.581,0,0,1,.78.13V22.393a3.705,3.705,0,0,0-1.066-.156,1.731,1.731,0,0,0-1.3.468,1.934,1.934,0,0,0-.468,1.43v.417H110.5V25.67h.728V30.3h1.326V25.67h1.509V24.578Zm2.965-.156a3,3,0,0,0-3.069,3.017v.026a3.07,3.07,0,0,0,6.137,0v-.026A2.983,2.983,0,0,0,117.026,24.422Zm1.742,3.043a1.728,1.728,0,0,1-1.742,1.82,1.788,1.788,0,0,1-1.769-1.846v-.026A1.714,1.714,0,0,1,117,25.593,1.763,1.763,0,0,1,118.768,27.465Zm3.277-1.639v-1.3h-1.326V30.3h1.326V28.115c0-1.535.806-2.289,1.976-2.289h.078v-1.4A2.065,2.065,0,0,0,122.045,25.826Zm9.129-1.4a2.363,2.363,0,0,0-1.951,1.014,1.841,1.841,0,0,0-1.716-1.014,2.092,2.092,0,0,0-1.769.988v-.884h-1.326V30.3h1.326v-3.25c0-.885.5-1.43,1.223-1.43s1.17.493,1.17,1.4V30.3h1.326V27.05c0-.937.52-1.43,1.222-1.43.755,0,1.171.493,1.171,1.4V30.3h1.326V26.633a1.911,1.911,0,0,0-2-2.21Z"/><path class="b" d="M148.727,12.33a2.236,2.236,0,0,0,2.236-2.236v-.026a2.236,2.236,0,1,0-4.473,0v.026a2.236,2.236,0,0,0,2.237,2.236Zm6.6,6.683a2.238,2.238,0,0,0,2.237-2.237V9.936a2.236,2.236,0,1,0-4.473,0V16.8a2.214,2.214,0,0,0,2.236,2.21Z"/><path class="c" d="M141.938,18.909H148.8a2.237,2.237,0,0,0,0-4.474h-6.865a2.236,2.236,0,1,0,0,4.473ZM155.41,5.438A2.237,2.237,0,1,0,153.174,3.2v.026a2.23,2.23,0,0,0,2.236,2.21ZM141.887,21.12a2.236,2.236,0,1,0,0,4.472h.026a2.236,2.236,0,0,0,2.236-2.236,2.293,2.293,0,0,0-2.262-2.237Zm20.18-8.765a2.236,2.236,0,0,0,2.236-2.236V3.253a2.236,2.236,0,0,0-4.473,0v6.866a2.253,2.253,0,0,0,2.237,2.236Z"/><path class="b" d="M168.647,12.277a2.236,2.236,0,1,0,0-4.473h-.026a2.236,2.236,0,0,0-2.236,2.236A2.311,2.311,0,0,0,168.647,12.277Zm-6.682,6.606h6.865a2.236,2.236,0,1,0,0-4.473h-6.865a2.236,2.236,0,0,0,0,4.473Z"/><path class="c" d="M161.885,34.512a2.237,2.237,0,0,0-2.237,2.236v.026a2.237,2.237,0,1,0,4.473,0v-.026a2.253,2.253,0,0,0-2.236-2.236Zm6.684-6.892a2.236,2.236,0,0,0-2.237,2.237v.026a2.236,2.236,0,0,0,4.473,0v-.052a2.247,2.247,0,0,0-2.236-2.21Zm6.787-6.6H168.49a2.236,2.236,0,0,0,0,4.473h6.866a2.236,2.236,0,0,0,0-4.473Zm.209-6.5a2.236,2.236,0,1,0,0,4.473h.026a2.237,2.237,0,0,0,2.236-2.237A2.292,2.292,0,0,0,175.565,14.514Z"/><path class="b" d="M148.778,27.8a2.237,2.237,0,1,0,0,4.473h.026a2.237,2.237,0,0,0,2.236-2.237,2.292,2.292,0,0,0-2.262-2.236Z"/><path class="c" d="M155.358,27.725a2.236,2.236,0,0,0-2.237,2.236v6.866a2.236,2.236,0,0,0,4.473,0V29.96a2.236,2.236,0,0,0-2.236-2.236Z"/><path class="b" d="M155.463,21.2H148.6a2.236,2.236,0,1,0,0,4.473h6.865a2.236,2.236,0,1,0,0-4.473Zm6.475-.286a2.236,2.236,0,0,0-2.237,2.237v6.865a2.237,2.237,0,1,0,4.473,0V23.148a2.236,2.236,0,0,0-2.236-2.237Z"/></g></svg>