<svg xmlns="http://www.w3.org/2000/svg" xmlns:xlink="http://www.w3.org/1999/xlink" width="201" height="43.046" viewBox="0 0 201 43.046"><defs><style>.a{fill:#fff;}.b{clip-path:url(#a);}</style><clipPath id="a"><path class="a" d="M0,0H201V43.046H0Z" transform="translate(0 0.061)"/></clipPath></defs><g class="b" transform="translate(0 -0.061)"><path class="a" d="M2.44,12.2a.9.9,0,0,0,.912-.912.88.88,0,0,0-.911-.911.912.912,0,0,0,0,1.823Zm2.264,0a.891.891,0,0,0,.882-.912.873.873,0,0,0-.882-.911.891.891,0,0,0-.882.911A.873.873,0,0,0,4.7,12.2Zm11.7,9.438a.874.874,0,0,0-.882-.912.891.891,0,0,0-.882.912.882.882,0,1,0,1.764,0Zm-2.235,0a.88.88,0,0,0-.911-.912.891.891,0,0,0-.882.912.9.9,0,1,0,1.794,0Zm15.76,0a.88.88,0,0,0-.911-.912.891.891,0,0,0-.882.912.9.9,0,1,0,1.793,0Zm2.234,0a.873.873,0,0,0-.882-.912.891.891,0,0,0-.882.912.883.883,0,1,0,1.765,0ZM51.632,12.2a.891.891,0,0,0,.882-.912.873.873,0,0,0-.882-.911.912.912,0,0,0,0,1.823Zm-2.235,0a.9.9,0,0,0,.912-.912.881.881,0,0,0-.912-.911.891.891,0,0,0-.882.911A.873.873,0,0,0,49.4,12.2Z"/><path class="a" d="M54.278,19.614H57.6V10.03H55.806v8.145H51.66v-4.94H49.867V18.2H45.78a3.517,3.517,0,0,1-1.5-.353,3.482,3.482,0,0,0,1.382-2.617c0-1.176-.852-2.235-2.852-2.235a7.3,7.3,0,0,0-3.91,1.5l-.147,1.264a7.346,7.346,0,0,1,2.852,1.97,10.525,10.525,0,0,1-3.176.412H36.812V10.03H35.02v8.145H32.226v-4.94H30.433V18.2H26.962V16.293c0-1.97-.94-3.235-3.146-3.235a3.285,3.285,0,0,0-3.47,3.529c0,1.235-.352,1.617-1.029,1.617H16.465v-4.97H14.672V18.2H6.585V13.529a8.773,8.773,0,0,0-2.823-.47,3.255,3.255,0,0,0-3.587,3.41c0,1.94,1,3.146,3.646,3.146H19.258a1.866,1.866,0,0,0,1.794-1.058c.412.676,1.206,1.058,2.793,1.058H38.312a10.707,10.707,0,0,0,4.469-.852,4.775,4.775,0,0,0,2.793.852h8.7ZM4.85,18.2H3.968c-1.412,0-2.029-.676-2.029-1.911a1.619,1.619,0,0,1,1.617-1.823A3.478,3.478,0,0,1,4.85,14.7Zm20.347,0H24.021c-1.412,0-1.912-.588-1.912-1.794,0-1.146.589-1.94,1.588-1.94s1.5.588,1.5,2.028V18.2Zm17.877-1.176a10.5,10.5,0,0,0-2.5-1.882,4.3,4.3,0,0,1,2.059-.823c.882,0,1.294.5,1.294,1.146A2.065,2.065,0,0,1,43.074,17.027Zm18.585-7H59.865v9.585h1.794V10.03Zm14.318,12.82V19.614h6.939v-6.38H81.122V18.2H76.006V13.528a8.846,8.846,0,0,0-2.852-.47,3.255,3.255,0,0,0-3.587,3.41c0,1.941.97,3.146,3.617,3.146h1.058v1.912s-1.176.088-2.382.088c-3.38,0-4.44-.853-4.44-2.94a10,10,0,0,1,.383-2.558l-1.853.352a9.936,9.936,0,0,0-.323,2.411c0,2.823,1.676,4.146,5.969,4.146,1.764-.03,4.38-.176,4.38-.176ZM73.36,18.2c-1.411,0-2.029-.676-2.029-1.911a1.635,1.635,0,0,1,1.617-1.823,3.229,3.229,0,0,1,1.265.235v3.5H73.36Zm-1.5-6a.9.9,0,0,0,.912-.912.881.881,0,0,0-.912-.911.891.891,0,0,0-.882.911A.856.856,0,0,0,71.862,12.2Zm2.235,0a.891.891,0,0,0,.882-.912.873.873,0,0,0-.882-.911.912.912,0,0,0,0,1.823Zm7,9.438a.873.873,0,0,0,.882.911.891.891,0,0,0,.882-.911.873.873,0,0,0-.882-.912A.891.891,0,0,0,81.094,21.643Z"/><path class="a" d="M78.83,21.643a.873.873,0,0,0,.882.911.9.9,0,0,0,.912-.911.881.881,0,0,0-.912-.912A.911.911,0,0,0,78.83,21.643Zm16.2-2.029H105.7a24.026,24.026,0,0,0,.176-3.264c0-2.028-.882-3.293-2.764-3.293a3.855,3.855,0,0,0-3.5,2.529,11.84,11.84,0,0,0,.147-2V10.058H97.971V18.2H90.826V13.528A8.773,8.773,0,0,0,88,13.058a3.255,3.255,0,0,0-3.587,3.41c0,1.94,1,3.146,3.646,3.146h1.059v.206c0,1.264-.941,1.793-2.353,1.793a11.208,11.208,0,0,1-2.117-.235l-.117,1.47a14.446,14.446,0,0,0,2.058.177c3.028,0,4.263-1.53,4.263-3.381v-.03h4.176Zm7.734-5.116c.97,0,1.293.764,1.293,2.058,0,.5-.029,1.117-.058,1.647H99.764c.353-1.911,1.559-3.7,3-3.7Zm-13.7,3.7H88.18c-1.412,0-2.03-.677-2.03-1.911a1.62,1.62,0,0,1,1.618-1.823,3.484,3.484,0,0,1,1.294.235v3.5Zm24.962-6a.891.891,0,0,0,.882-.912.873.873,0,0,0-.882-.911.891.891,0,0,0-.882.911A.874.874,0,0,0,114.024,12.2Zm-2.263,0a.9.9,0,0,0,.911-.912.88.88,0,0,0-.911-.911.912.912,0,0,0,0,1.823Zm29.432,7.409h1.676a1.864,1.864,0,0,0,1.793-1.058c.412.676,1.206,1.058,2.794,1.058h3.087V16.292c0-1.97-.941-3.234-3.146-3.234a3.284,3.284,0,0,0-3.47,3.528c0,1.235-.353,1.617-1.029,1.617h-2.852V13.234h-1.794V18.2h-4.44c.03-.618.059-1.236.059-1.853,0-2.029-.882-3.293-2.764-3.293a3.854,3.854,0,0,0-3.5,2.528,11.832,11.832,0,0,0,.147-2v-.352h-1.793V18.2H115.906V13.528a8.773,8.773,0,0,0-2.823-.47,3.256,3.256,0,0,0-3.587,3.41c0,1.941,1,3.146,3.646,3.146h28.051Zm6.086-5.145c1,0,1.5.588,1.5,2.029v1.7H147.6c-1.412,0-1.912-.588-1.912-1.793C145.721,15.263,146.309,14.469,147.279,14.469ZM114.171,18.2h-.882c-1.411,0-2.029-.676-2.029-1.911a1.619,1.619,0,0,1,1.617-1.823,3.478,3.478,0,0,1,1.294.235v3.5Zm17.848,0h-4.234c.353-1.911,1.558-3.7,3-3.7.97,0,1.294.765,1.294,2.059C132.078,17.027,132.048,17.645,132.019,18.2Zm7.147-6.116a.94.94,0,1,0-.941-.941.946.946,0,0,0,.941.94ZM7,24.583H0v1.411H2.734v7.233h1.53V25.994H7V24.583Z"/><path class="a" d="M10.85,30.405a1.463,1.463,0,0,1-1.47,1.617C8.5,32.022,8,31.464,8,30.434V26.7H6.5v4.146a2.229,2.229,0,0,0,2.323,2.5A2.337,2.337,0,0,0,10.85,32.2v1h1.5V26.7h-1.5Zm10.262-3.7-1.323,4.47-1.44-4.47H17.055l-1.441,4.47L14.32,26.7H12.791l2.088,6.586h1.352l1.47-4.469,1.441,4.47h1.353L22.612,26.7h-1.5Zm4.408-.058a5.667,5.667,0,0,0-2.469.529l.382,1.176a4.755,4.755,0,0,1,1.853-.412c1.058,0,1.617.5,1.617,1.412v.147a5.877,5.877,0,0,0-1.764-.265c-1.588,0-2.676.676-2.676,2.088v.03a2.076,2.076,0,0,0,2.293,2,2.63,2.63,0,0,0,2.117-.94v.823h1.47V29.376a2.723,2.723,0,0,0-.7-2,2.643,2.643,0,0,0-2.117-.734Zm1.442,4.234c0,.823-.765,1.382-1.735,1.382-.706,0-1.265-.353-1.265-1v-.03c0-.676.56-1.087,1.53-1.087a4.116,4.116,0,0,1,1.47.264v.47ZM30.99,24.29H29.373V25.7H30.99Zm-.057,2.41h-1.5v6.528h1.5Zm6,1.03a2.674,2.674,0,0,0-2.236-1.148,3.12,3.12,0,0,0-3.028,3.382v.03a3.136,3.136,0,0,0,3.028,3.38,2.609,2.609,0,0,0,2.235-1.234V35.2h1.5V26.7h-1.5v1.03Zm.029,2.263a1.892,1.892,0,1,1-3.764,0v-.03a1.915,1.915,0,0,1,1.882-2.087,1.958,1.958,0,0,1,1.882,2.117Zm8.381-3.411a3.231,3.231,0,0,0-3.176,3.382v.03a3.4,3.4,0,0,0,6.028,2.146l-.882-.765a2.384,2.384,0,0,1-1.765.765,1.825,1.825,0,0,1-1.881-1.647h4.792c0-.147.03-.294.03-.412-.03-1.881-1.059-3.5-3.146-3.5Zm-1.706,2.94a1.759,1.759,0,0,1,1.676-1.7,1.676,1.676,0,0,1,1.647,1.7H43.634Zm9.2-.822H49.191v1.47h3.646Zm2.793-4.117H54.1v8.645h6.057V31.846H55.63Zm7.881,2a3.231,3.231,0,0,0-3.175,3.382v.03a3.4,3.4,0,0,0,6.028,2.146l-.883-.765a2.381,2.381,0,0,1-1.764.765,1.825,1.825,0,0,1-1.881-1.647h4.792c0-.147.03-.294.03-.412-.03-1.881-1.088-3.5-3.147-3.5Zm-1.705,2.94a1.759,1.759,0,0,1,1.676-1.7,1.676,1.676,0,0,1,1.647,1.7H61.806Zm8.086-2.88a5.665,5.665,0,0,0-2.47.529l.382,1.176a4.755,4.755,0,0,1,1.853-.412c1.058,0,1.617.5,1.617,1.412v.147a5.877,5.877,0,0,0-1.764-.265c-1.588,0-2.676.676-2.676,2.088v.03a2.076,2.076,0,0,0,2.293,2,2.634,2.634,0,0,0,2.118-.94v.823h1.47V29.376a2.723,2.723,0,0,0-.706-2,2.643,2.643,0,0,0-2.117-.734Zm1.44,4.234c0,.823-.764,1.382-1.734,1.382-.706,0-1.264-.353-1.264-1v-.03c0-.676.558-1.087,1.528-1.087a4.1,4.1,0,0,1,1.47.264v.47Zm3.939-2.706V26.7h-1.5v6.528h1.5v-2.47c0-1.735.912-2.588,2.235-2.588h.088V26.582a2.337,2.337,0,0,0-2.323,1.588ZM81.5,26.582a2.337,2.337,0,0,0-2.029,1.147v-1h-1.5v6.528h1.5V29.582a1.463,1.463,0,0,1,1.47-1.617c.882,0,1.382.587,1.382,1.587v3.7h1.5V29.082a2.258,2.258,0,0,0-2.323-2.5Zm4.911-2.292H84.8V25.7h1.617Zm-.059,2.41h-1.5v6.528h1.5Zm4.617-.118a2.339,2.339,0,0,0-2.03,1.147v-1h-1.5v6.528h1.5V29.582a1.463,1.463,0,0,1,1.47-1.617c.882,0,1.382.587,1.382,1.587v3.7h1.5V29.082A2.229,2.229,0,0,0,90.974,26.582ZM99.207,27.7a2.767,2.767,0,0,0-2.294-1.117,2.944,2.944,0,0,0-2.97,3.057v.03a2.945,2.945,0,0,0,2.97,3.058,2.692,2.692,0,0,0,2.294-1.206v.5a1.831,1.831,0,0,1-2.059,2,4.464,4.464,0,0,1-2.322-.677l-.56,1.118a5.736,5.736,0,0,0,2.912.764,3.668,3.668,0,0,0,2.675-.882,3.373,3.373,0,0,0,.824-2.47V26.7h-1.5v1h.03Zm.029,1.94a1.828,1.828,0,0,1-1.911,1.794,1.778,1.778,0,0,1-1.853-1.794v-.029a1.762,1.762,0,0,1,1.853-1.794,1.851,1.851,0,0,1,1.91,1.823Zm9.144-5.057h-3.411v8.645H106.5V30.464H108.2c1.911,0,3.44-1,3.44-2.94v-.03C111.643,25.73,110.379,24.583,108.38,24.583Zm1.734,2.97c0,.911-.705,1.529-1.852,1.529H106.5V25.965h1.764c1.117,0,1.852.53,1.852,1.588ZM113.7,24.23h-1.5v9h1.5Zm3.7,2.412a5.665,5.665,0,0,0-2.47.529l.382,1.176a4.754,4.754,0,0,1,1.852-.412c1.059,0,1.618.5,1.618,1.412v.147a5.879,5.879,0,0,0-1.765-.265c-1.587,0-2.675.676-2.675,2.088v.03a2.076,2.076,0,0,0,2.293,2,2.63,2.63,0,0,0,2.117-.94v.823h1.47V29.376a2.723,2.723,0,0,0-.705-2,2.643,2.643,0,0,0-2.117-.734Zm1.44,4.234c0,.823-.764,1.382-1.734,1.382-.706,0-1.265-.353-1.265-1v-.03c0-.676.559-1.087,1.529-1.087a4.108,4.108,0,0,1,1.47.264v.47Zm4.086-5.94h-1.5V26.73h-.824v1.264h.824v3.44c0,1.44.764,1.911,1.881,1.911a2.7,2.7,0,0,0,1.353-.323V31.787a2,2,0,0,1-.912.235c-.5,0-.793-.235-.793-.823v-3.2h1.764V26.7h-1.764V24.936h-.03Zm6.028,1.824h-1.735v-.354c0-.676.294-1,.853-1a2.928,2.928,0,0,1,.882.148V24.289a4.2,4.2,0,0,0-1.206-.176,1.956,1.956,0,0,0-1.47.529,2.185,2.185,0,0,0-.529,1.617v.47h-.823v1.265h.823v5.234h1.5V27.994h1.706V26.759Zm3.353-.178a3.39,3.39,0,0,0-3.469,3.411v.03a3.471,3.471,0,0,0,6.939,0v-.03a3.372,3.372,0,0,0-3.47-3.41Zm1.97,3.44a1.954,1.954,0,0,1-1.97,2.059,2.022,2.022,0,0,1-2-2.088v-.03a1.937,1.937,0,0,1,1.97-2.057,1.994,1.994,0,0,1,2,2.117Zm3.705-1.852V26.7h-1.5v6.528h1.5v-2.47c0-1.735.911-2.588,2.234-2.588h.089V26.582a2.336,2.336,0,0,0-2.323,1.588Zm10.319-1.588a2.671,2.671,0,0,0-2.205,1.147,2.083,2.083,0,0,0-1.941-1.146,2.363,2.363,0,0,0-2,1.117v-1h-1.5v6.528h1.5V29.552c0-1,.558-1.617,1.382-1.617s1.323.559,1.323,1.588v3.7h1.5V29.552c0-1.058.588-1.617,1.382-1.617.853,0,1.323.559,1.323,1.588v3.705h1.5V29.082a2.162,2.162,0,0,0-2.264-2.5ZM168.156,12.91a2.528,2.528,0,0,0,2.528-2.529v-.03a2.529,2.529,0,0,0-5.057,0v.03A2.528,2.528,0,0,0,168.156,12.91Zm7.468,7.557a2.529,2.529,0,0,0,2.529-2.529V10.2a2.529,2.529,0,1,0-5.057,0v7.762A2.5,2.5,0,0,0,175.624,20.467Zm-15.142-.117h7.762a2.529,2.529,0,1,0,0-5.058h-7.762a2.528,2.528,0,1,0,0,5.057Zm15.23-15.232a2.529,2.529,0,1,0-2.528-2.528v.03A2.521,2.521,0,0,0,175.712,5.118ZM160.423,22.849a2.528,2.528,0,0,0,0,5.057h.03a2.528,2.528,0,0,0,2.528-2.529A2.592,2.592,0,0,0,160.423,22.849ZM183.24,12.94a2.529,2.529,0,0,0,2.528-2.53V2.649a2.529,2.529,0,0,0-5.057,0v7.763A2.547,2.547,0,0,0,183.24,12.94Zm7.439-.089a2.529,2.529,0,1,0,0-5.058h-.029a2.529,2.529,0,0,0-2.529,2.53,2.612,2.612,0,0,0,2.558,2.528Zm-7.557,7.469h7.763a2.529,2.529,0,0,0,0-5.058h-7.763a2.529,2.529,0,0,0,0,5.058Zm-.087,17.671a2.529,2.529,0,0,0-2.529,2.529v.03a2.529,2.529,0,0,0,5.057,0v-.03A2.548,2.548,0,0,0,183.035,37.991Zm7.556-7.791a2.528,2.528,0,0,0-2.529,2.528v.03a2.529,2.529,0,0,0,5.058,0V32.7A2.543,2.543,0,0,0,190.591,30.2Zm7.673-7.469H190.5a2.528,2.528,0,0,0,0,5.057h7.763a2.528,2.528,0,0,0,0-5.057Zm.237-7.351a2.529,2.529,0,0,0,0,5.057h.03a2.528,2.528,0,0,0,2.528-2.528,2.593,2.593,0,0,0-2.558-2.53ZM168.214,30.405a2.529,2.529,0,0,0,0,5.057h.03a2.528,2.528,0,0,0,2.528-2.529,2.593,2.593,0,0,0-2.558-2.528Zm7.44-.088a2.529,2.529,0,0,0-2.529,2.529v7.762a2.529,2.529,0,1,0,5.057,0V32.846a2.529,2.529,0,0,0-2.528-2.53Zm.118-7.381h-7.763a2.529,2.529,0,1,0,0,5.058h7.763a2.529,2.529,0,0,0,0-5.058Zm7.321-.323a2.529,2.529,0,0,0-2.529,2.529V32.9a2.529,2.529,0,0,0,5.058,0V25.142a2.529,2.529,0,0,0-2.529-2.529Z"/></g></svg>