<svg xmlns="http://www.w3.org/2000/svg" width="204.001" height="52.938" viewBox="0 0 204.001 52.938"><defs><style>.a{fill:#fff;fill-rule:evenodd;}</style></defs><g transform="translate(0 -0.115)"><path class="a" d="M72.781,10.745H71.633a.106.106,0,0,0-.12.119v.99a.105.105,0,0,0,.12.119h1.148a.106.106,0,0,0,.12-.12v-.99a.105.105,0,0,0-.12-.118Zm15.086,4.317a1,1,0,0,1-.871.356,1.021,1.021,0,0,1-.831-.356,1.571,1.571,0,0,1-.278-1.07,1.643,1.643,0,0,1,.278-1.069,1.02,1.02,0,0,1,.83-.356c.793,0,1.15.475,1.15,1.425A1.644,1.644,0,0,1,87.867,15.062Zm1.425-2.3a2.264,2.264,0,0,0-.514-.792,2.634,2.634,0,0,0-.792-.475,3.74,3.74,0,0,0-.99-.12,2.2,2.2,0,0,0-2.218,1.347,3.286,3.286,0,0,0-.2,1.149v.356a1.53,1.53,0,0,1-.177.776.66.66,0,0,1-.627.293h-7.67a1.2,1.2,0,0,1-.713-.158.643.643,0,0,1-.277-.555v-1.9a.106.106,0,0,0-.12-.12H73.888a.105.105,0,0,0-.119.12V16.21a1.465,1.465,0,0,1-.435,1.148,1.621,1.621,0,0,1-1.109.357,3.078,3.078,0,0,1-.554-.08,1.227,1.227,0,0,1-.515-.237,1.5,1.5,0,0,1-.357-.515,1.568,1.568,0,0,1-.158-.792,2.409,2.409,0,0,1,.158-.95,5.259,5.259,0,0,0,.317-.95l-.95-.357a.175.175,0,0,0-.2,0,4.043,4.043,0,0,0-.475,1.109,3.676,3.676,0,0,0-.2,1.267,2.679,2.679,0,0,0,.2,1.188,2.344,2.344,0,0,0,.633.871,2.219,2.219,0,0,0,.911.475,3.625,3.625,0,0,0,1.149.159,3.745,3.745,0,0,0,1.187-.159,2.679,2.679,0,0,0,.95-.475,2.823,2.823,0,0,0,.6-.871,3.307,3.307,0,0,0,.2-1.148v-.159c0,.035.1.113.123.135a1.367,1.367,0,0,0,.89.256c.672.031,1.347.01,2.021.007l1.133,0h4.188a4.345,4.345,0,0,0,.711-.043,2.012,2.012,0,0,0,.359-.092,1.587,1.587,0,0,0,.317-.182.926.926,0,0,0,.277-.277,2.1,2.1,0,0,0,.791.515,3.036,3.036,0,0,0,1.07.158,2.833,2.833,0,0,0,1.03-.158,1.948,1.948,0,0,0,1.266-1.228,3.443,3.443,0,0,0,.159-1.188,3.868,3.868,0,0,0-.158-1.227ZM94.362,8.8H93.055c-.023,0-.087-.1-.1-.118-.026-.036-.054-.068-.081-.1a.766.766,0,0,1-.128-.243.684.684,0,0,1,.105-.677.573.573,0,0,1,.5-.153,1.443,1.443,0,0,1,.5.269l.436-.317a1.1,1.1,0,0,0-.436-.436,1.43,1.43,0,0,0-1.147,0,1.226,1.226,0,0,0-.52.436,1.112,1.112,0,0,0-.154.86c.02.085.051.166.077.249.007.023.059.233.081.233H91.67v.559h2.692V8.8Z"/><path class="a" d="M103.391,8.567v6.415a1.6,1.6,0,0,1-.316,1.149,1.339,1.339,0,0,1-1.07.356h-3.96a2.364,2.364,0,0,1-.792-.12,1.055,1.055,0,0,1-.554-.474,1,1,0,0,1-.475.435,1.891,1.891,0,0,1-.871.159H90.244a.106.106,0,0,1-.119-.12v-.95a.105.105,0,0,1,.12-.118h2.138V10.23a.1.1,0,0,1,.118-.119h1.11a.105.105,0,0,1,.118.12V15.3h1.228a.762.762,0,0,0,.316-.04.312.312,0,0,0,.16-.158.979.979,0,0,0,.078-.356V8.567a.105.105,0,0,1,.12-.119h1.108a.1.1,0,0,1,.118.119V14.7c.08.4.4.594.99.594h3.644a.636.636,0,0,0,.435-.119.691.691,0,0,0,.119-.475V8.567a.1.1,0,0,1,.119-.119h1.109a.1.1,0,0,1,.118.119Zm7.466,11.423a.1.1,0,0,1-.116-.117V18.86c0-.081.039-.12.116-.12l1,0a.107.107,0,0,1,.12.12v1.013a.105.105,0,0,1-.12.116l-1,0Zm-1.547,0a.106.106,0,0,1-.12-.117V18.86a.107.107,0,0,1,.12-.12h1a.107.107,0,0,1,.12.12v1.013a.106.106,0,0,1-.12.116h-1Zm-1.57-4.761a1.492,1.492,0,0,0,.167.746,1.358,1.358,0,0,0,.429.48,1.663,1.663,0,0,0,.6.247,3.314,3.314,0,0,0,.676.07l2.371,0a1.766,1.766,0,0,0,.947-.182.547.547,0,0,0,.256-.452.5.5,0,0,0-.2-.356,4.428,4.428,0,0,0-.5-.372q-.308-.19-.649-.417a4.332,4.332,0,0,1-.65-.514,2.6,2.6,0,0,1-.5-.642,1.714,1.714,0,0,1-.2-.832,1.909,1.909,0,0,1,.166-.8,1.993,1.993,0,0,1,.472-.654,2.275,2.275,0,0,1,.731-.437,2.8,2.8,0,0,1,.963-.158,2.884,2.884,0,0,1,1.318.255,2.711,2.711,0,0,1,.84.665c.046.054.035.112-.039.166l-.642.623a.105.105,0,0,1-.166-.012,2.1,2.1,0,0,0-.534-.383,1.663,1.663,0,0,0-.7-.135,1.22,1.22,0,0,0-.72.22.726.726,0,0,0-.317.643.785.785,0,0,0,.2.518,3.234,3.234,0,0,0,.506.46c.206.147.422.3.658.46a6.057,6.057,0,0,1,.654.5,2.829,2.829,0,0,1,.506.58,1.261,1.261,0,0,1,.2.711,1.725,1.725,0,0,1-.131.673,1.415,1.415,0,0,1-.418.561,2.01,2.01,0,0,1-.735.375,3.867,3.867,0,0,1-1.086.136l-2.773,0a3.277,3.277,0,0,1-2.305-.707,2.5,2.5,0,0,1-.754-1.922,4.2,4.2,0,0,1,.2-1.273,4.564,4.564,0,0,1,.5-1.094c.043-.073.1-.081.182-.023l.963.375c.038.016.062.039.066.066a.16.16,0,0,1-.02.089,5.627,5.627,0,0,0-.364.77,2.725,2.725,0,0,0-.17.974Zm12.848-.769a3.568,3.568,0,0,1-.109.97,1.477,1.477,0,0,1-.32.619,1.159,1.159,0,0,1-.55.332,2.924,2.924,0,0,1-.785.093h-2.761c-.081,0-.12-.039-.12-.116v-.932a.105.105,0,0,1,.12-.12h2.212a2.253,2.253,0,0,0,.514-.046.55.55,0,0,0,.29-.159.528.528,0,0,0,.132-.29,2.754,2.754,0,0,0,.031-.437v-.789c0-.692-.406-1.036-1.214-1.036H116.6c-.078,0-.116-.04-.116-.12v-.944a.1.1,0,0,1,.116-.116H118.5a2.153,2.153,0,0,1,1.516.515,2.044,2.044,0,0,1,.569,1.6v.978Zm18.483-.587a3.231,3.231,0,0,1-.238.4,1.482,1.482,0,0,1-.356.357,2.762,2.762,0,0,1-.4.317,3.624,3.624,0,0,0-.554-1.268,3.163,3.163,0,0,0-.911-.87,1.576,1.576,0,0,1,.475-.16,2.672,2.672,0,0,1,.832-.118,1.893,1.893,0,0,1,.871.2.694.694,0,0,1,.357.673,1.959,1.959,0,0,1-.08.475ZM125.291,15.3h-1.07a1.22,1.22,0,0,1-.871-.277,1.29,1.29,0,0,1-.277-.99,1.646,1.646,0,0,1,.277-1.07.947.947,0,0,1,.832-.4.922.922,0,0,1,.831.356,1.594,1.594,0,0,1,.278,1.03V15.3Zm31.244-6.85h-1.109a.1.1,0,0,0-.119.118v6.1a.675.675,0,0,1-.158.515.522.522,0,0,1-.4.119h-2.218a1.13,1.13,0,0,1-.752-.2.587.587,0,0,1-.238-.515V11.7a.105.105,0,0,0-.118-.12h-1.11a.105.105,0,0,0-.118.12v2.455c0,.237-.039.435-.039.594a.484.484,0,0,1-.119.356.36.36,0,0,1-.238.158,1.475,1.475,0,0,1-.436.04.826.826,0,0,1-.594-.158.668.668,0,0,1-.238-.555v-1.94a.1.1,0,0,0-.118-.119h-1.109a.1.1,0,0,0-.118.119v1.505a2.6,2.6,0,0,1-.04.594.785.785,0,0,1-.079.356c-.04.08-.159.119-.278.158a1.218,1.218,0,0,1-.435.04.878.878,0,0,1-.634-.158.644.644,0,0,1-.2-.555v-1.94a.1.1,0,0,0-.119-.119H144.3a.1.1,0,0,0-.118.119v2.02a.8.8,0,0,1-.079.356.281.281,0,0,1-.159.2.428.428,0,0,1-.317.079h-4.118a.5.5,0,0,1-.238-.04,3.352,3.352,0,0,0,.476-.316,6.12,6.12,0,0,0,.4-.515,2.377,2.377,0,0,0,.276-.555,1.831,1.831,0,0,0,.12-.673,1.631,1.631,0,0,0-.634-1.346,3.233,3.233,0,0,0-1.98-.475,4.03,4.03,0,0,0-.99.079,4.331,4.331,0,0,0-.832.2,1.381,1.381,0,0,0-.594.277c-.158.119-.237.2-.237.277v.911c.04.04.079.119.158.158l.475.357a2.057,2.057,0,0,1,.436.4,4.852,4.852,0,0,1,.356.475,3.478,3.478,0,0,1,.278.673,4.944,4.944,0,0,1-.594.119H126.6V13.992a3.544,3.544,0,0,0-.158-1.227,1.837,1.837,0,0,0-.515-.792,2.442,2.442,0,0,0-.752-.476,4,4,0,0,0-.99-.118,3.423,3.423,0,0,0-.911.118,2.665,2.665,0,0,0-.792.476,2.25,2.25,0,0,0-.515.831,3.137,3.137,0,0,0-.237,1.267,3.066,3.066,0,0,0,.2,1.11,1.566,1.566,0,0,0,.436.752,1.969,1.969,0,0,0,.752.435,3.534,3.534,0,0,0,.99.119h1.188a2.369,2.369,0,0,1-.08.594.753.753,0,0,1-.2.356.846.846,0,0,1-.316.2,1.916,1.916,0,0,1-.476.04H122.8a.127.127,0,0,0-.118.119v.95a.126.126,0,0,0,.118.119h1.624a2.222,2.222,0,0,0,1.624-.515,2.024,2.024,0,0,0,.554-1.623v-.238h9.7a6.6,6.6,0,0,0,.792-.08,3.559,3.559,0,0,0,.832-.316,2.316,2.316,0,0,0,.712.317,5.366,5.366,0,0,0,.832.079h4.554a2.67,2.67,0,0,0,.872-.158.923.923,0,0,0,.474-.476,1.2,1.2,0,0,0,1.149.634h.515a2.473,2.473,0,0,0,.871-.158.924.924,0,0,0,.475-.476,1.265,1.265,0,0,0,.436.476,1.892,1.892,0,0,0,.712.158h.516a2.669,2.669,0,0,0,.871-.158.928.928,0,0,0,.475-.476.924.924,0,0,0,.515.515,2.611,2.611,0,0,0,.831.119h2.534a1.324,1.324,0,0,0,1.07-.4,1.684,1.684,0,0,0,.316-1.109V8.567a.1.1,0,0,0-.118-.119Zm2.952,7.9c0,.077-.039.116-.12.116h-1.106c-.082,0-.12-.035-.12-.112V8.574c0-.082.038-.124.12-.124h1.106a.1.1,0,0,1,.12.12Zm7.812-1.9a3.6,3.6,0,0,1-.109.97,1.465,1.465,0,0,1-.321.62,1.151,1.151,0,0,1-.549.332,2.924,2.924,0,0,1-.785.093h-2.761c-.081,0-.12-.039-.12-.116v-.932a.105.105,0,0,1,.12-.12h2.212a2.253,2.253,0,0,0,.514-.046.55.55,0,0,0,.29-.159.525.525,0,0,0,.132-.29,2.753,2.753,0,0,0,.031-.437v-.789c0-.692-.406-1.036-1.214-1.036h-1.432c-.077,0-.116-.039-.116-.12v-.944a.1.1,0,0,1,.116-.116h1.907a2.153,2.153,0,0,1,1.516.515,2.045,2.045,0,0,1,.569,1.6v.978Zm25-5.291h-.99c-.079,0-.118,0-.118.08v1.03a.1.1,0,0,0,.118.118h.99a.1.1,0,0,0,.119-.119V9.24c0-.078-.039-.078-.119-.078Zm1.544,0h-.989c-.079,0-.119,0-.119.08v1.03a.1.1,0,0,0,.119.118h.989a.105.105,0,0,0,.12-.119V9.24c0-.078-.04-.078-.12-.078Zm-.594,2.535v3.287a1.69,1.69,0,0,1-.316,1.109,1.452,1.452,0,0,1-1.07.356H187.7a2.751,2.751,0,0,1-.871-.118,1.02,1.02,0,0,1-.6-.555,1.234,1.234,0,0,1-.633.555,3.281,3.281,0,0,1-.95.118H170.038a1.332,1.332,0,0,1-1.068-.356,1.491,1.491,0,0,1-.357-1.109V8.567a.1.1,0,0,1,.119-.119h1.109a.105.105,0,0,1,.119.119v6.1a.876.876,0,0,0,.158.515.631.631,0,0,0,.435.119h13.583a3.689,3.689,0,0,0,.378-.024.7.7,0,0,0,.351-.123.635.635,0,0,0,.219-.373,1.531,1.531,0,0,0,.03-.332c0-.1.013-.187.008-.284a3.748,3.748,0,0,0-.075-.567,1.386,1.386,0,0,0-.237-.554,1.248,1.248,0,0,0-.436-.357,1.22,1.22,0,0,0-.673-.158,1.912,1.912,0,0,0-.713.158,2.121,2.121,0,0,0-.594.436c-.04.04-.079.04-.158,0l-.634-.634c-.04-.079-.04-.118,0-.158a3.82,3.82,0,0,1,.871-.713,3,3,0,0,1,1.267-.277,3.193,3.193,0,0,1,1.307.277,2.086,2.086,0,0,1,.871.634,3.6,3.6,0,0,1,.476.95,5.028,5.028,0,0,1,.118,1.109v.317a.606.606,0,0,0,.278.475,1.173,1.173,0,0,0,.712.2h3.8a.5.5,0,0,0,.436-.158c.118-.08.158-.238.158-.476V11.7a.1.1,0,0,1,.119-.118h1.108a.105.105,0,0,1,.119.118Zm4.787,3.6h1.237a.588.588,0,0,0,.433-.136.665.665,0,0,0,.139-.487V8.566c0-.081.039-.12.116-.12h1.11c.077,0,.116.039.116.12v6.412a1.642,1.642,0,0,1-.321,1.125,1.368,1.368,0,0,1-1.071.36h-5.225a.1.1,0,0,1-.12-.116v-.932a.1.1,0,0,1,.12-.12h2.12v-5.07a.1.1,0,0,1,.116-.116h1.11a.105.105,0,0,1,.12.116V15.3ZM204,16.347c0,.077-.039.116-.12.116h-1.106a.1.1,0,0,1-.12-.116V8.566a.105.105,0,0,1,.12-.12h1.106a.105.105,0,0,1,.12.12v7.78ZM71.871,21.109H70.722a.1.1,0,0,0-.118.119v1.03a.1.1,0,0,0,.118.118h1.15a.1.1,0,0,0,.118-.118v-1.03a.106.106,0,0,0-.119-.12Zm9.462,0H80.185a.105.105,0,0,0-.119.119v1.03a.1.1,0,0,0,.119.118h1.148a.105.105,0,0,0,.12-.118v-1.03a.106.106,0,0,0-.12-.12Zm.079,2.535v3.287a1.6,1.6,0,0,1-.316,1.148,1.335,1.335,0,0,1-1.07.356h-.281c-.25,0-6.341.011-6.592,0a3.94,3.94,0,0,1-.71-.081,1.088,1.088,0,0,1-.5-.315v.238a9.465,9.465,0,0,1-.078,1.109,2.11,2.11,0,0,1-.358.792,1.716,1.716,0,0,1-.672.475,2.355,2.355,0,0,1-.99.158h-.436a.106.106,0,0,1-.12-.119v-.95a.105.105,0,0,1,.12-.119h.277a.994.994,0,0,0,.515-.119.713.713,0,0,0,.277-.316,1.315,1.315,0,0,0,.12-.594v-4.95a.1.1,0,0,1,.118-.12H71.83a.105.105,0,0,1,.118.12v2.89a.76.76,0,0,0,.278.555,1.351,1.351,0,0,0,.713.158h6.573a.634.634,0,0,0,.435-.119.681.681,0,0,0,.12-.475v-3.01a.1.1,0,0,1,.118-.118h1.109a.1.1,0,0,1,.118.119Zm3.6.861a.977.977,0,0,0-.843.4,1.736,1.736,0,0,0-.3,1.071,1.336,1.336,0,0,0,.3,1.013,1.266,1.266,0,0,0,.874.271H86.1V25.92a1.781,1.781,0,0,0-.26-1.056.959.959,0,0,0-.834-.36ZM84.9,28.43a3.681,3.681,0,0,1-1-.124,1.655,1.655,0,0,1-.73-.414,1.836,1.836,0,0,1-.457-.746,4,4,0,0,1,.035-2.366,2.286,2.286,0,0,1,.533-.836,2.131,2.131,0,0,1,.782-.472A2.971,2.971,0,0,1,85,23.325a3.174,3.174,0,0,1,.982.143,1.992,1.992,0,0,1,.77.445,2.076,2.076,0,0,1,.5.805,3.545,3.545,0,0,1,.177,1.21v2.757a2.1,2.1,0,0,1-.556,1.62,2.368,2.368,0,0,1-1.632.507h-1.61a.106.106,0,0,1-.119-.12v-.943a.105.105,0,0,1,.12-.116H85.02a2.244,2.244,0,0,0,.441-.043.73.73,0,0,0,.348-.17.831.831,0,0,0,.216-.364,1.966,1.966,0,0,0,.078-.626H84.9Zm3.329,2.378a.106.106,0,0,1-.12-.12v-.944a.1.1,0,0,1,.12-.116H88.5a.914.914,0,0,0,.72-.247,1.111,1.111,0,0,0,.22-.754V23.65c0-.077.039-.116.12-.116h1.106a.105.105,0,0,1,.12.116v5a1.886,1.886,0,0,1-2.108,2.158h-.44Zm13.575-10.293V26.93a1.8,1.8,0,0,1-.317,1.149,1.491,1.491,0,0,1-1.108.356H99.008c-.34,0-.678.008-1.016-.008-.17-.008-.341-.022-.51-.046a1.483,1.483,0,0,1-.466-.1,1.054,1.054,0,0,1-.594-.514.94.94,0,0,1-.594.514,2.452,2.452,0,0,1-.99.16H92.185a.105.105,0,0,1-.119-.12v-.95a.105.105,0,0,1,.119-.119h2.178a1.767,1.767,0,0,0,.515-.04.477.477,0,0,0,.436-.435,1.468,1.468,0,0,0,.04-.435v-.793a.981.981,0,0,0-.318-.791,1.458,1.458,0,0,0-.91-.238H92.7a.1.1,0,0,1-.118-.119v-.95a.105.105,0,0,1,.118-.12h1.822A2.438,2.438,0,0,1,96.1,23.8a2.036,2.036,0,0,1,.6,1.624v1.109a.588.588,0,0,0,.237.514,1.078,1.078,0,0,0,.713.2h2.218a.636.636,0,0,0,.435-.119c.119-.08.159-.238.159-.475V20.515a.105.105,0,0,1,.119-.119h1.109a.105.105,0,0,1,.118.12Zm2.823,7.8c0,.077-.039.116-.12.116H103.4c-.081,0-.12-.039-.12-.116l0-7.78a.1.1,0,0,1,.12-.12h1.106a.1.1,0,0,1,.12.12Zm3.762-3.81a.98.98,0,0,0-.842.4,1.731,1.731,0,0,0-.3,1.072,1.336,1.336,0,0,0,.3,1.012,1.264,1.264,0,0,0,.874.271h1.06V25.917a1.79,1.79,0,0,0-.259-1.057.963.963,0,0,0-.836-.36Zm-.1,3.926a3.676,3.676,0,0,1-1-.124,1.657,1.657,0,0,1-.731-.413,1.849,1.849,0,0,1-.456-.747,3.976,3.976,0,0,1,.035-2.366,2.274,2.274,0,0,1,.533-.836,2.135,2.135,0,0,1,.781-.472,2.982,2.982,0,0,1,.929-.147,3.174,3.174,0,0,1,.982.143,1.992,1.992,0,0,1,.77.445,2.076,2.076,0,0,1,.5.805,3.6,3.6,0,0,1,.177,1.214v2.757a2.093,2.093,0,0,1-.557,1.617,2.37,2.37,0,0,1-1.632.506h-1.608a.106.106,0,0,1-.12-.12v-.943a.105.105,0,0,1,.12-.116H108.4a2.244,2.244,0,0,0,.441-.043.74.74,0,0,0,.348-.17.842.842,0,0,0,.217-.364,2,2,0,0,0,.077-.626h-1.2Zm8.092-7.792h-1.03a.105.105,0,0,0-.119.119l.04,1.03a.084.084,0,0,0,.079.078h1.03c.079,0,.119-.039.119-.078v-1.03a.106.106,0,0,0-.119-.12Zm1.543,0h-.989a.105.105,0,0,0-.119.119v1.03c0,.04.04.078.119.078h.989c.08,0,.12-.039.12-.078v-1.03a.106.106,0,0,0-.12-.12Zm5.7,8.791h-1.109a.105.105,0,0,0-.119.119v.99a.105.105,0,0,0,.119.119h1.109a.105.105,0,0,0,.118-.12v-.99a.1.1,0,0,0-.118-.118Zm7.761-2.415a1.173,1.173,0,0,1-.872.316,1.017,1.017,0,0,1-.832-.317,1.647,1.647,0,0,1-.276-1.069,1.652,1.652,0,0,1,.276-1.07.927.927,0,0,1,.832-.355c.753,0,1.148.475,1.148,1.425A1.927,1.927,0,0,1,131.389,27.01ZM117.647,25.5a1.428,1.428,0,0,1-.277.95,1.13,1.13,0,0,1-.831.318,1.024,1.024,0,0,1-.792-.277.97.97,0,0,1-.278-.793,1.185,1.185,0,0,1,.278-.95,1.455,1.455,0,0,1,.831-.237h1.069v.99Zm15.127-.792a1.846,1.846,0,0,0-.514-.791,2.446,2.446,0,0,0-.753-.476,3.991,3.991,0,0,0-.99-.119,3.431,3.431,0,0,0-.95.12,1.927,1.927,0,0,0-.792.435,2.274,2.274,0,0,0-.514.792A2.822,2.822,0,0,0,128.1,26.2a.641.641,0,0,1,0,.124,1.041,1.041,0,0,1-.272.684,1.012,1.012,0,0,1-.237.2.5.5,0,0,1-.238.04h-.673a1.192,1.192,0,0,1-.713-.159.617.617,0,0,1-.277-.514V26.3a5.328,5.328,0,0,0-.119-1.149,3.536,3.536,0,0,0-.475-.95,2.077,2.077,0,0,0-.871-.634,3.22,3.22,0,0,0-1.307-.238,2.5,2.5,0,0,0-1.267.278,2.877,2.877,0,0,0-.872.673c-.039.04-.039.08.04.158l.6.634c.079.04.118.04.157,0a3.254,3.254,0,0,1,.6-.436,1.919,1.919,0,0,1,.712-.118,1.722,1.722,0,0,1,.673.118,1.24,1.24,0,0,1,.436.357,1.388,1.388,0,0,1,.238.554,4.322,4.322,0,0,1,.079.713c0,.2-.039.356-.039.475a.8.8,0,0,1-.159.317.621.621,0,0,1-.277.158,2.067,2.067,0,0,1-.514.04h-3.763a.636.636,0,0,1-.435-.119.813.813,0,0,1-.119-.515v-3.8a.106.106,0,0,0-.119-.12h-1.109a.106.106,0,0,0-.119.12v.514H116.46a3.063,3.063,0,0,0-.872.12,1.884,1.884,0,0,0-1.267,1.108,3.309,3.309,0,0,0-.2,1.149,3.768,3.768,0,0,0,.158,1.03,2.177,2.177,0,0,0,.516.672,1.575,1.575,0,0,0,.712.4,3.058,3.058,0,0,0,.872.12,2.173,2.173,0,0,0,.712-.08,2.1,2.1,0,0,0,.594-.317,1.289,1.289,0,0,0,.436.713,1.937,1.937,0,0,0,.91.2h4.792a2.952,2.952,0,0,0,.95-.159,1.078,1.078,0,0,0,.634-.554,1.135,1.135,0,0,0,.594.554,1.888,1.888,0,0,0,.871.159h.4c.119,0,.238-.04.357-.04a1.2,1.2,0,0,0,.4-.079,1.627,1.627,0,0,0,.356-.2,1.855,1.855,0,0,0,.277-.277,1.846,1.846,0,0,0,.792.515,4.347,4.347,0,0,0,1.069.158,2.61,2.61,0,0,0,.99-.158,1.946,1.946,0,0,0,.792-.436,2.224,2.224,0,0,0,.475-.792,3.374,3.374,0,0,0,.2-1.188,3.791,3.791,0,0,0-.2-1.228Zm7.089,4.713h-1.148a.105.105,0,0,0-.119.119v.99a.105.105,0,0,0,.119.119h1.148a.105.105,0,0,0,.119-.12v-.99a.1.1,0,0,0-.119-.118Z"/><path class="a" d="M143.586,20.515V26.93a1.689,1.689,0,0,1-.317,1.11,1.225,1.225,0,0,1-1.069.4h-1.148a2.075,2.075,0,0,1-.713-.119.989.989,0,0,1-.555-.515.926.926,0,0,1-.474.476,2.684,2.684,0,0,1-.912.158h-.989a3.612,3.612,0,0,1-.714-.079.786.786,0,0,1-.474-.317v.2a4.551,4.551,0,0,1-.119,1.11,2.3,2.3,0,0,1-.357.83,1.891,1.891,0,0,1-.634.476,3.716,3.716,0,0,1-1.029.158h-.436a.105.105,0,0,1-.119-.119v-.95a.105.105,0,0,1,.119-.119h.278a.9.9,0,0,0,.515-.119.7.7,0,0,0,.316-.356,2.047,2.047,0,0,0,.079-.554c0-.2.04-.476.04-.753v-4.2a.105.105,0,0,1,.119-.12H136.1a.106.106,0,0,1,.119.12v2.89a.589.589,0,0,0,.237.515,1.127,1.127,0,0,0,.753.2h.831a.765.765,0,0,0,.317-.04.261.261,0,0,0,.158-.2.789.789,0,0,0,.079-.357v-3.01a.1.1,0,0,1,.119-.118h1.109a.105.105,0,0,1,.119.119v2.89a.616.616,0,0,0,.277.515,1.077,1.077,0,0,0,.713.2h.752a.714.714,0,0,0,.436-.119.9.9,0,0,0,.119-.514v-6.1a.105.105,0,0,1,.119-.119h1.108a.106.106,0,0,1,.119.12Zm2.838,7.787c0,.078-.039.116-.12.116H145.2c-.081,0-.12-.038-.12-.116l0-7.78a.1.1,0,0,1,.12-.12H146.3a.1.1,0,0,1,.12.12Zm3.762-3.809a.979.979,0,0,0-.842.4,1.731,1.731,0,0,0-.3,1.072,1.339,1.339,0,0,0,.3,1.013,1.269,1.269,0,0,0,.874.27h1.06V25.91a1.787,1.787,0,0,0-.259-1.056.963.963,0,0,0-.836-.36Zm-.1,3.925a3.718,3.718,0,0,1-1-.123,1.668,1.668,0,0,1-.731-.414,1.863,1.863,0,0,1-.456-.746,3.98,3.98,0,0,1,.035-2.367,2.279,2.279,0,0,1,.534-.836,2.121,2.121,0,0,1,.78-.471,2.953,2.953,0,0,1,.929-.147,3.144,3.144,0,0,1,.982.143,1.977,1.977,0,0,1,.77.444,2.072,2.072,0,0,1,.5.805,3.6,3.6,0,0,1,.178,1.214v2.757a2.091,2.091,0,0,1-.558,1.617,2.37,2.37,0,0,1-1.632.507h-1.608a.107.107,0,0,1-.12-.12v-.944a.105.105,0,0,1,.12-.116H150.2a2.17,2.17,0,0,0,.441-.043.721.721,0,0,0,.348-.17.844.844,0,0,0,.217-.363,2.01,2.01,0,0,0,.077-.627h-1.2Zm9.7,3.185h-.99a.1.1,0,0,0-.118.119v1.03a.1.1,0,0,0,.118.118h.99a.105.105,0,0,0,.119-.119v-1.03a.105.105,0,0,0-.119-.118Zm1.545,0h-.99a.105.105,0,0,0-.119.119v1.03a.1.1,0,0,0,.119.118h.99a.1.1,0,0,0,.118-.119v-1.03a.1.1,0,0,0-.118-.118Zm5.78-10.494h-1.148a.105.105,0,0,0-.119.119v.99a.105.105,0,0,0,.119.119h1.148a.106.106,0,0,0,.119-.12v-.99a.1.1,0,0,0-.119-.118Zm.079,2.535v3.287a1.492,1.492,0,0,1-.316,1.108,1.337,1.337,0,0,1-1.07.357h-1.98a2.576,2.576,0,0,1,.119.316.858.858,0,0,1,.079.436A1.383,1.383,0,0,1,163.5,30.3a1.9,1.9,0,0,1-.752.356,3.788,3.788,0,0,1-1.069.158H158.95a3.261,3.261,0,0,1-2.3-.712,2.485,2.485,0,0,1-.752-1.94,3.426,3.426,0,0,1,.08-.634,3.328,3.328,0,0,1,.158-.674l.238-.594a1.957,1.957,0,0,1,.316-.475c.04-.08.08-.08.159-.04l.95.476a.119.119,0,0,1,0,.158,7.722,7.722,0,0,0-.357.792,2.271,2.271,0,0,0-.158.871,1.425,1.425,0,0,0,.158.753,1.169,1.169,0,0,0,.4.475,1.877,1.877,0,0,0,.593.238,2.088,2.088,0,0,0,.674.079h2.336a2.031,2.031,0,0,0,.99-.159.563.563,0,0,0,.238-.475.637.637,0,0,0-.119-.356.944.944,0,0,0-.436-.317c-.2-.08-.435-.2-.713-.317-.316-.08-.673-.238-1.068-.356-.08-.04-.12-.08-.08-.159l.317-.91c.039-.08.079-.12.158-.12.238.12.476.2.713.318.238.079.476.158.673.237a4.189,4.189,0,0,0,.674.2,3.448,3.448,0,0,0,.673.08h1.822a.632.632,0,0,0,.435-.12.9.9,0,0,0,.119-.514v-2.97a.106.106,0,0,1,.119-.12h1.108a.106.106,0,0,1,.119.12Zm2.669,4.654c0,.078-.038.116-.12.116h-1.1c-.082,0-.12-.039-.12-.116l0-7.78a.1.1,0,0,1,.12-.12h1.106a.1.1,0,0,1,.119.12l0,7.78Zm13.594,1.087H182.3c-.079,0-.119.04-.119.159v.99a.105.105,0,0,0,.119.119h1.148a.106.106,0,0,0,.119-.12V29.5A.105.105,0,0,0,183.449,29.385Zm4.473.04h-.99a.105.105,0,0,0-.118.119v1.03a.1.1,0,0,0,.118.118h.99a.105.105,0,0,0,.12-.118v-1.03A.105.105,0,0,0,187.922,29.425Zm-1.543,0h-.991a.1.1,0,0,0-.118.119v1.03a.1.1,0,0,0,.118.118h.991a.1.1,0,0,0,.118-.118v-1.03A.1.1,0,0,0,186.379,29.425Z"/><path class="a" d="M201.149,20.515V26.93a1.492,1.492,0,0,1-.317,1.11,1.338,1.338,0,0,1-1.069.356h-1.108a4.424,4.424,0,0,1-.793-.08.991.991,0,0,1-.554-.515.924.924,0,0,1-.475.476A2.3,2.3,0,0,1,196,28.4h-.514a1.351,1.351,0,0,1-.713-.159.782.782,0,0,1-.436-.436.867.867,0,0,1-.515.476,2.3,2.3,0,0,1-.832.119h-.514a1.234,1.234,0,0,1-1.188-.595.928.928,0,0,1-.475.476,2.3,2.3,0,0,1-.832.119H188.4a2.369,2.369,0,0,1-.594-.08.884.884,0,0,1-.554-.515.869.869,0,0,1-.515.476,2.8,2.8,0,0,1-.911.119h-1.109a4.422,4.422,0,0,1-.792-.08.884.884,0,0,1-.554-.515.869.869,0,0,1-.515.476,2.535,2.535,0,0,1-.871.119h-7.55a3.184,3.184,0,0,1-.673-.04,1.019,1.019,0,0,1-.515-.317v.2a4.5,4.5,0,0,1-.119,1.11,1.446,1.446,0,0,1-.356.83,1.58,1.58,0,0,1-.633.476,3.438,3.438,0,0,1-.991.158h-.435a.105.105,0,0,1-.119-.119v-.95a.1.1,0,0,1,.119-.119h.238a1.051,1.051,0,0,0,.554-.119.859.859,0,0,0,.277-.356c.04-.158.079-.317.119-.554v-4.95a.105.105,0,0,1,.118-.12h1.109a.105.105,0,0,1,.119.12v2.89a.575.575,0,0,0,.278.515,1.166,1.166,0,0,0,.712.2h7.392c.118,0,.237-.04.316-.04a.389.389,0,0,0,.158-.2.788.788,0,0,0,.08-.357v-3.01a.1.1,0,0,1,.119-.118h1.108a.105.105,0,0,1,.119.119v2.85a.6.6,0,0,0,.278.555,1.164,1.164,0,0,0,.712.2h.991a.754.754,0,0,0,.316-.079.4.4,0,0,0,.158-.2.788.788,0,0,0,.079-.356v-2.97c0-.04.04-.08.08-.12h1.148a.105.105,0,0,1,.119.12v2.85a.6.6,0,0,0,.277.555,1.167,1.167,0,0,0,.713.2h1.149a.8.8,0,0,0,.356-.079.93.93,0,0,0,.158-.2.872.872,0,0,0,.04-.356v-2.06a.1.1,0,0,1,.119-.118h1.109a.1.1,0,0,1,.118.119v1.94a.721.721,0,0,0,.2.554,1,1,0,0,0,.634.2,1.615,1.615,0,0,0,.475-.04.358.358,0,0,0,.237-.158.632.632,0,0,0,.119-.356V24.554a.1.1,0,0,1,.119-.118h1.109a.105.105,0,0,1,.119.119v1.98a.668.668,0,0,0,.237.554,1.307,1.307,0,0,0,.6.158,1.215,1.215,0,0,0,.435-.04.636.636,0,0,0,.277-.158,1.839,1.839,0,0,0,.119-.356v-3.05a.1.1,0,0,1,.119-.118h1.109a.105.105,0,0,1,.119.119v2.85a.6.6,0,0,0,.276.555,1.261,1.261,0,0,0,.714.2h.792a.494.494,0,0,0,.435-.158.691.691,0,0,0,.119-.475v-6.1a.1.1,0,0,1,.118-.119h1.109a.106.106,0,0,1,.119.12ZM204,28.294c0,.078-.039.116-.12.116h-1.106c-.081,0-.12-.038-.12-.116l0-7.78a.1.1,0,0,1,.12-.12h1.106a.1.1,0,0,1,.12.12ZM71.356,41.84a3.007,3.007,0,0,1-.6-.059,3.269,3.269,0,0,1-.553-.158,2.87,2.87,0,0,1-.488-.238,2.249,2.249,0,0,1-.384-.3.086.086,0,0,1-.016-.125l.5-.6a.065.065,0,0,1,.111-.01,3.116,3.116,0,0,0,.3.218,2.444,2.444,0,0,0,.358.192,2.513,2.513,0,0,0,.4.137,1.792,1.792,0,0,0,.446.056,1.15,1.15,0,0,0,.765-.231.737.737,0,0,0,.273-.589.642.642,0,0,0-.22-.5,1.529,1.529,0,0,0-.788-.28l-.288-.041a2.268,2.268,0,0,1-1.234-.514,1.432,1.432,0,0,1-.427-1.1,1.865,1.865,0,0,1,.127-.7,1.519,1.519,0,0,1,.373-.542,1.653,1.653,0,0,1,.588-.346,2.322,2.322,0,0,1,.773-.122,3.115,3.115,0,0,1,.984.154,2.651,2.651,0,0,1,.8.414.083.083,0,0,1,.015.117l-.388.617a.077.077,0,0,1-.116.025,2.937,2.937,0,0,0-.653-.335,2.11,2.11,0,0,0-.665-.107.905.905,0,0,0-.646.213.73.73,0,0,0-.223.546.623.623,0,0,0,.227.488,1.615,1.615,0,0,0,.788.28l.292.041a2.228,2.228,0,0,1,1.223.513,1.478,1.478,0,0,1,.422,1.13,1.934,1.934,0,0,1-.13.7,1.521,1.521,0,0,1-.392.558,1.927,1.927,0,0,1-.654.367,2.727,2.727,0,0,1-.9.135ZM76.6,39.686l-.73-2.2h-.024l-.738,2.2H76.6Zm-1.208-3.53a.1.1,0,0,1,.1-.082h.746a.106.106,0,0,1,.108.083l1.86,5.507c.02.055,0,.083-.053.083h-.8a.1.1,0,0,1-.1-.083l-.365-1.1-2.076,0-.361,1.1a.108.108,0,0,1-.108.083h-.785c-.053,0-.072-.028-.057-.083l1.887-5.51Zm5.052,4.8a1.035,1.035,0,0,0,.78-.314,1.259,1.259,0,0,0,.3-.9v-3.58a.072.072,0,0,1,.081-.082H82.4a.072.072,0,0,1,.081.083v3.6a2.348,2.348,0,0,1-.154.88,1.825,1.825,0,0,1-.423.654,1.806,1.806,0,0,1-.646.41,2.263,2.263,0,0,1-.81.142,2.235,2.235,0,0,1-.8-.142,1.812,1.812,0,0,1-1.065-1.064,2.348,2.348,0,0,1-.154-.88v-3.6c0-.056.027-.083.08-.083H79.3c.054,0,.08.027.08.083v3.579a1.256,1.256,0,0,0,.3.9,1.025,1.025,0,0,0,.77.314Zm3.818-.142c0,.032.015.05.046.05h.819a1.426,1.426,0,0,0,.742-.168.926.926,0,0,0,.4-.55A.656.656,0,0,0,86.313,40a2.225,2.225,0,0,0,.027-.224c.007-.093.015-.208.023-.348s.008-.312.008-.518,0-.376-.008-.516-.016-.256-.023-.35a2.175,2.175,0,0,0-.027-.225.643.643,0,0,0-.042-.143.933.933,0,0,0-.4-.55,1.446,1.446,0,0,0-.742-.166h-.82c-.03,0-.045.015-.045.05v3.8Zm-.957-4.656c0-.056.026-.083.08-.083h1.968A1.728,1.728,0,0,1,87.2,37.331c.02.073.039.15.054.23s.03.18.046.3.023.26.027.429.008.376.008.62,0,.452-.008.623-.015.312-.027.429-.027.215-.046.3-.034.158-.054.23a1.731,1.731,0,0,1-1.842,1.262H83.387c-.054,0-.08-.027-.08-.083V36.157Zm4.709,0c0-.056.026-.083.08-.083h.8c.054,0,.08.027.08.083v5.507c0,.055-.026.083-.08.083h-.8c-.054,0-.08-.028-.08-.083Zm3.371,0c0-.056.026-.083.08-.083H94.92c.053,0,.08.027.08.083v.716c0,.056-.026.085-.08.085H92.39c-.03,0-.046.015-.046.05V38.45c0,.032.016.05.046.05h2.134c.054,0,.08.027.08.082V39.3c0,.056-.026.085-.08.085H92.39c-.03,0-.046.015-.046.05v2.228a.072.072,0,0,1-.08.083h-.8a.072.072,0,0,1-.081-.083V36.155Zm4.187,0c0-.056.027-.083.08-.083l3.453,0c.054,0,.08.027.08.083v.717c0,.056-.026.084-.08.084l-2.53,0c-.03,0-.046.015-.046.05V38.39c0,.035.016.05.046.05l2.134,0c.054,0,.08.03.08.085v.717c0,.056-.026.082-.08.082l-2.134,0c-.03,0-.046.018-.046.05V40.81c0,.033.016.05.046.05l2.53,0c.054,0,.08.028.08.083v.719c0,.056-.026.083-.08.083l-3.452,0c-.054,0-.08-.027-.08-.083V36.155Zm5.22,4.654c0,.033.015.05.046.05h.818a1.432,1.432,0,0,0,.743-.168.921.921,0,0,0,.4-.55.612.612,0,0,0,.042-.145,1.988,1.988,0,0,0,.027-.225c.008-.093.016-.208.023-.348s.008-.312.008-.517,0-.377-.008-.517-.015-.256-.023-.35a1.755,1.755,0,0,0-.027-.225.571.571,0,0,0-.042-.142.924.924,0,0,0-.4-.55,1.432,1.432,0,0,0-.743-.167h-.818c-.031,0-.046.015-.046.05v3.8Zm-.958-4.656a.072.072,0,0,1,.081-.083h1.968a1.731,1.731,0,0,1,1.842,1.26c.019.072.038.15.054.228s.031.181.046.3.023.26.027.429.008.377.008.62,0,.453-.008.623-.016.312-.027.43-.027.214-.046.295-.035.158-.054.23a1.731,1.731,0,0,1-1.842,1.26H99.917a.072.072,0,0,1-.081-.083V36.153Zm4.707,0c0-.056.026-.083.08-.083h3.453a.072.072,0,0,1,.081.083v.716c0,.056-.027.085-.081.085h-2.53c-.031,0-.046.015-.046.05v1.384c0,.035.015.05.046.05h2.134c.054,0,.081.029.081.085v.717a.072.072,0,0,1-.081.082h-2.134c-.031,0-.046.018-.046.05v1.436c0,.033.015.05.046.05h2.53a.072.072,0,0,1,.081.083v.719a.073.073,0,0,1-.081.083h-3.453c-.054,0-.08-.028-.08-.083V36.153Zm6.44,2.409a.859.859,0,0,0,.611-.216.867.867,0,0,0,0-1.176.851.851,0,0,0-.611-.217h-1.177c-.031,0-.046.016-.046.05v1.51c0,.034.015.05.046.05Zm.949,3.179a.121.121,0,0,1-.123-.083l-1.053-2.212-.95,0c-.031,0-.046.017-.046.052v2.16a.072.072,0,0,1-.081.083h-.795a.072.072,0,0,1-.081-.083V36.153a.072.072,0,0,1,.081-.083l2.129,0a1.879,1.879,0,0,1,.7.126,1.707,1.707,0,0,1,.553.345,1.55,1.55,0,0,1,.37.535,1.748,1.748,0,0,1,.134.688,1.657,1.657,0,0,1-.284.967,1.592,1.592,0,0,1-.762.592l1.158,2.312a.068.068,0,0,1-.058.108h-.9Zm4.162-2.061-.73-2.2h-.024l-.738,2.2h1.492Zm-1.207-3.529a.1.1,0,0,1,.1-.083h.746a.107.107,0,0,1,.108.083l1.861,5.507c.019.056,0,.083-.054.083h-.8a.1.1,0,0,1-.1-.083l-.366-1.1H114.31l-.361,1.1a.106.106,0,0,1-.108.083h-.784c-.054,0-.073-.027-.058-.083l1.888-5.507Zm3.954,5.589a.072.072,0,0,1-.081-.082V37c0-.034-.015-.05-.046-.05h-1.446c-.053,0-.08-.028-.08-.084v-.717c0-.056.027-.083.08-.083h3.941a.072.072,0,0,1,.081.083v.717q0,.084-.081.084h-1.442c-.035,0-.05.016-.05.05v4.656a.072.072,0,0,1-.081.083h-.795Zm2.878-5.59c0-.055.026-.082.08-.082l.8,0a.072.072,0,0,1,.081.083v5.507a.072.072,0,0,1-.081.083l-.8,0c-.054,0-.08-.027-.08-.083V36.151Zm3.745,4.8a1.044,1.044,0,0,0,.661-.2,1.066,1.066,0,0,0,.366-.548,1.37,1.37,0,0,0,.042-.175,2.392,2.392,0,0,0,.027-.25c.008-.1.015-.221.019-.363s.012-.312.012-.513,0-.371-.012-.514-.011-.261-.019-.361-.015-.184-.027-.252a1.458,1.458,0,0,0-.042-.175,1.077,1.077,0,0,0-.366-.546,1.21,1.21,0,0,0-1.322,0,1.121,1.121,0,0,0-.361.545,1.447,1.447,0,0,0-.043.175,1.907,1.907,0,0,0-.034.252c-.008.1-.012.221-.016.361s0,.314,0,.514,0,.373,0,.513.008.263.016.363a1.805,1.805,0,0,0,.034.25,1.359,1.359,0,0,0,.043.175,1.121,1.121,0,0,0,.361.548,1.04,1.04,0,0,0,.661.2Zm0,.884a2.136,2.136,0,0,1-1.226-.346,1.848,1.848,0,0,1-.719-1.023c-.027-.088-.05-.178-.069-.267a2.688,2.688,0,0,1-.046-.307c-.008-.117-.019-.256-.023-.413s-.008-.35-.008-.573,0-.412.008-.572.015-.295.023-.413a2.623,2.623,0,0,1,.046-.307c.019-.09.042-.18.069-.267a1.841,1.841,0,0,1,.719-1.023,2.354,2.354,0,0,1,2.457,0,1.861,1.861,0,0,1,.722,1.023c.027.088.046.177.066.267a2.853,2.853,0,0,1,.046.307c.011.117.019.256.023.413s.007.35.007.572,0,.413-.007.572-.012.3-.023.414a2.932,2.932,0,0,1-.046.307c-.02.089-.039.18-.066.267a1.876,1.876,0,0,1-.722,1.023A2.149,2.149,0,0,1,125.464,41.831Zm2.792-5.681c0-.057.027-.084.08-.084h.746a.157.157,0,0,1,.139.083l2.245,3.914h.031V36.149c0-.056.026-.083.08-.083h.7a.074.074,0,0,1,.084.083v5.507a.074.074,0,0,1-.084.083h-.734a.149.149,0,0,1-.139-.083l-2.253-3.906h-.03v3.906a.074.074,0,0,1-.085.083h-.7c-.053,0-.08-.027-.08-.083Zm6.523,0a.072.072,0,0,1,.081-.082h3.452a.072.072,0,0,1,.081.082v.717c0,.056-.027.085-.081.085h-2.529c-.031,0-.046.015-.046.05v1.444c0,.032.015.05.046.05h2.133a.072.072,0,0,1,.081.082v.717q0,.084-.081.084h-2.133c-.031,0-.046.016-.046.05v2.228a.072.072,0,0,1-.081.083h-.8a.072.072,0,0,1-.081-.083V36.147Zm6.117,4.8a1.044,1.044,0,0,0,.661-.2,1.066,1.066,0,0,0,.366-.548,1.37,1.37,0,0,0,.042-.175,2.39,2.39,0,0,0,.027-.25c.008-.1.015-.221.019-.363s.012-.311.012-.513,0-.371-.012-.513-.011-.262-.019-.362-.015-.184-.027-.252a1.455,1.455,0,0,0-.042-.175,1.07,1.07,0,0,0-.366-.545,1.207,1.207,0,0,0-1.322,0,1.129,1.129,0,0,0-.362.545,1.68,1.68,0,0,0-.042.175,1.907,1.907,0,0,0-.034.252c-.008.1-.012.221-.016.362s0,.313,0,.513,0,.373,0,.513.008.263.016.363a1.8,1.8,0,0,0,.034.25,1.558,1.558,0,0,0,.042.175,1.129,1.129,0,0,0,.362.548A1.04,1.04,0,0,0,140.9,40.945Zm0,.884a2.136,2.136,0,0,1-1.226-.346,1.846,1.846,0,0,1-.719-1.022c-.027-.089-.05-.18-.069-.268a2.689,2.689,0,0,1-.046-.307c-.008-.117-.019-.256-.023-.413s-.008-.35-.008-.573,0-.412.008-.571.015-.3.023-.414a2.619,2.619,0,0,1,.046-.307q.028-.135.069-.267a1.845,1.845,0,0,1,.719-1.023,2.354,2.354,0,0,1,2.457,0,1.868,1.868,0,0,1,.722,1.023c.027.088.046.177.066.267a2.855,2.855,0,0,1,.046.307c.011.118.019.256.023.414s.007.35.007.57,0,.414-.007.574-.012.3-.023.413a2.926,2.926,0,0,1-.046.307c-.02.089-.039.18-.066.268a1.869,1.869,0,0,1-.722,1.022A2.149,2.149,0,0,1,140.9,41.829Zm4.973-3.273a.859.859,0,0,0,.612-.215.868.868,0,0,0,0-1.177.852.852,0,0,0-.612-.217l-1.176,0c-.031,0-.046.015-.046.05v1.509c0,.035.015.05.046.05Zm.95,3.18a.122.122,0,0,1-.123-.083l-1.053-2.213-.95,0c-.031,0-.046.017-.046.052v2.16a.072.072,0,0,1-.081.083h-.8a.072.072,0,0,1-.081-.082V36.147a.072.072,0,0,1,.081-.082l2.13,0a1.893,1.893,0,0,1,.7.125,1.714,1.714,0,0,1,.554.346,1.539,1.539,0,0,1,.369.534,1.734,1.734,0,0,1,.135.688,1.657,1.657,0,0,1-.284.967,1.591,1.591,0,0,1-.762.592l1.157,2.313a.065.065,0,0,1,0,.075.067.067,0,0,1-.061.032h-.9Zm3.069-1.3c-.027-.089-.05-.177-.069-.263a2.822,2.822,0,0,1-.046-.3c-.008-.114-.019-.248-.023-.4s-.008-.344-.008-.573,0-.411.008-.567.015-.29.023-.4a2.662,2.662,0,0,1,.046-.3c.019-.086.042-.175.069-.263a1.875,1.875,0,0,1,.708-1.047,2.06,2.06,0,0,1,1.2-.347,2,2,0,0,1,1.146.325,1.952,1.952,0,0,1,.718.894c.016.05,0,.083-.042.1l-.688.342c-.046.027-.085.014-.1-.042a1.609,1.609,0,0,0-.376-.517.939.939,0,0,0-.654-.217.95.95,0,0,0-.634.2,1.16,1.16,0,0,0-.354.551c-.015.062-.031.121-.042.183a1.453,1.453,0,0,0-.035.238c-.007.1-.011.215-.015.354s0,.311,0,.517,0,.386,0,.523.008.252.015.35a1.545,1.545,0,0,0,.035.242c.011.063.027.123.042.179a1.16,1.16,0,0,0,.354.551,1.1,1.1,0,0,0,1.288-.017,1.609,1.609,0,0,0,.376-.517c.019-.056.058-.07.1-.042l.688.342c.046.017.058.05.042.1a1.942,1.942,0,0,1-.718.892,2,2,0,0,1-1.146.326,2.06,2.06,0,0,1-1.2-.346,1.875,1.875,0,0,1-.708-1.047Zm5.487,1.3c-.058,0-.085-.027-.085-.083V39.415l-1.6-3.27c-.02-.056,0-.083.065-.083h.819a.117.117,0,0,1,.115.083l1.076,2.2h.024l1.088-2.2a.11.11,0,0,1,.111-.083l.785,0c.065,0,.088.027.065.083l-1.6,3.272v2.237a.073.073,0,0,1-.082.083Zm3.774-.919c0,.033.015.05.046.05h1.153a.834.834,0,0,0,.619-.217.788.788,0,0,0,.215-.577.777.777,0,0,0-.215-.567.834.834,0,0,0-.619-.217H159.2c-.031,0-.046.017-.046.05Zm1.149-2.4a.8.8,0,0,0,.577-.2.725.725,0,0,0,.208-.538.737.737,0,0,0-.208-.548.809.809,0,0,0-.577-.2h-1.1c-.031,0-.046.018-.046.05v1.394c0,.033.015.05.046.05h1.1Zm-2.107-2.278a.073.073,0,0,1,.081-.083h2.049a1.8,1.8,0,0,1,1.3.414,1.466,1.466,0,0,1,.419,1.1,1.383,1.383,0,0,1-.189.772,1.272,1.272,0,0,1-.45.429v.017a.945.945,0,0,1,.258.158,1.168,1.168,0,0,1,.234.27,1.565,1.565,0,0,1,.243.848,1.533,1.533,0,0,1-.493,1.26,2.139,2.139,0,0,1-1.4.409h-1.968a.072.072,0,0,1-.081-.082Zm4.565,0a.072.072,0,0,1,.08-.083h3.453c.054,0,.08.028.08.083v.717c0,.056-.026.085-.08.085h-2.53c-.03,0-.046.015-.046.05v1.384c0,.034.016.05.046.05h2.134c.054,0,.08.029.08.084v.718c0,.055-.026.082-.08.082h-2.134c-.03,0-.046.017-.046.05V40.8c0,.033.016.05.046.05h2.53c.054,0,.08.027.08.083v.718c0,.056-.026.083-.08.083h-3.453a.072.072,0,0,1-.08-.082V36.143Zm6.438,2.409a.855.855,0,0,0,.611-.216.867.867,0,0,0,0-1.176.851.851,0,0,0-.611-.217l-1.177,0c-.031,0-.046.015-.046.05V38.5c0,.034.015.05.046.05Zm.949,3.179a.122.122,0,0,1-.123-.082l-1.053-2.213-.95,0c-.031,0-.046.017-.046.052v2.16a.072.072,0,0,1-.081.083h-.8c-.054,0-.08-.027-.08-.082V36.143c0-.056.026-.082.08-.082l2.13,0a1.9,1.9,0,0,1,.7.125,1.7,1.7,0,0,1,.554.345,1.561,1.561,0,0,1,.369.535,1.748,1.748,0,0,1,.134.688,1.657,1.657,0,0,1-.284.967,1.6,1.6,0,0,1-.762.592l1.157,2.312a.067.067,0,0,1,0,.076.067.067,0,0,1-.061.032h-.9Zm3.264.093a2.99,2.99,0,0,1-.6-.06,3.254,3.254,0,0,1-.554-.158,2.87,2.87,0,0,1-.488-.238,2.25,2.25,0,0,1-.384-.3.086.086,0,0,1-.016-.125l.5-.6a.065.065,0,0,1,.111-.009,3.3,3.3,0,0,0,.3.217,2.39,2.39,0,0,0,.357.192,2.583,2.583,0,0,0,.4.137,1.8,1.8,0,0,0,.446.056,1.145,1.145,0,0,0,.766-.231.736.736,0,0,0,.272-.588.642.642,0,0,0-.219-.5,1.542,1.542,0,0,0-.788-.28l-.288-.041a2.268,2.268,0,0,1-1.234-.513,1.434,1.434,0,0,1-.427-1.1,1.87,1.87,0,0,1,.127-.7,1.519,1.519,0,0,1,.373-.542,1.636,1.636,0,0,1,.588-.346,2.322,2.322,0,0,1,.773-.121,3.124,3.124,0,0,1,.984.153,2.645,2.645,0,0,1,.8.414.082.082,0,0,1,.016.117l-.388.617a.077.077,0,0,1-.116.025,2.958,2.958,0,0,0-.653-.335,2.115,2.115,0,0,0-.665-.107.9.9,0,0,0-.646.213.732.732,0,0,0-.223.546.623.623,0,0,0,.227.488,1.6,1.6,0,0,0,.788.28l.292.042a2.217,2.217,0,0,1,1.222.512,1.475,1.475,0,0,1,.423,1.13,1.919,1.919,0,0,1-.131.7,1.514,1.514,0,0,1-.392.557,1.9,1.9,0,0,1-.653.367,2.731,2.731,0,0,1-.9.135Zm2.665-5.683a.072.072,0,0,1,.081-.082H179.6a.072.072,0,0,1,.081.082v.717c0,.056-.027.085-.081.085h-2.53c-.03,0-.046.015-.046.05v1.384c0,.034.016.05.046.05h2.134a.073.073,0,0,1,.081.084v.718a.072.072,0,0,1-.081.082h-2.134c-.03,0-.046.018-.046.05V40.8c0,.033.016.05.046.05h2.53a.072.072,0,0,1,.081.083v.719a.072.072,0,0,1-.081.082h-3.452a.072.072,0,0,1-.081-.082V36.14Zm4.248,4.289q-.04-.134-.069-.264a2.329,2.329,0,0,1-.046-.3c-.008-.113-.02-.248-.024-.4s-.007-.344-.007-.572,0-.412.007-.567.016-.29.024-.4a2.275,2.275,0,0,1,.046-.3c.019-.086.042-.175.069-.263a1.876,1.876,0,0,1,.707-1.05,2.067,2.067,0,0,1,1.2-.346,1.992,1.992,0,0,1,1.146.325,1.949,1.949,0,0,1,.719.894c.016.05,0,.083-.042.1l-.688.342c-.047.027-.085.013-.1-.042a1.6,1.6,0,0,0-.377-.517.942.942,0,0,0-.654-.218.957.957,0,0,0-.634.2,1.167,1.167,0,0,0-.353.552c-.016.062-.032.121-.043.183a1.552,1.552,0,0,0-.035.238c-.007.1-.011.215-.015.354s0,.311,0,.517,0,.386,0,.523.008.251.015.35a1.674,1.674,0,0,0,.035.242,1.738,1.738,0,0,0,.043.179,1.159,1.159,0,0,0,.353.551.952.952,0,0,0,.634.2.942.942,0,0,0,.654-.217,1.6,1.6,0,0,0,.377-.517c.019-.056.057-.07.1-.043l.688.343c.046.017.058.05.042.1a1.944,1.944,0,0,1-.719.892,1.993,1.993,0,0,1-1.146.326,2.06,2.06,0,0,1-1.2-.346,1.863,1.863,0,0,1-.707-1.045Zm6.31.507a1.039,1.039,0,0,0,.78-.313,1.259,1.259,0,0,0,.3-.9v-3.58a.072.072,0,0,1,.081-.082h.792a.072.072,0,0,1,.081.082v3.6a2.355,2.355,0,0,1-.154.88,1.8,1.8,0,0,1-1.069,1.063,2.265,2.265,0,0,1-.811.142,2.238,2.238,0,0,1-.8-.142,1.821,1.821,0,0,1-1.065-1.063,2.355,2.355,0,0,1-.154-.88v-3.6a.072.072,0,0,1,.081-.082h.793a.071.071,0,0,1,.08.082v3.58a1.259,1.259,0,0,0,.3.9,1.027,1.027,0,0,0,.769.313Zm5.038-2.387a.848.848,0,0,0,.611-.217.865.865,0,0,0,0-1.177.855.855,0,0,0-.611-.215h-1.176c-.031,0-.047.015-.047.05V38.5c0,.034.016.05.047.05Zm.95,3.177a.121.121,0,0,1-.123-.082l-1.054-2.211h-.949c-.031,0-.047.017-.047.052v2.16c0,.056-.026.083-.08.083h-.8a.072.072,0,0,1-.081-.082V36.139a.072.072,0,0,1,.081-.082h2.13a1.943,1.943,0,0,1,.7.123,1.7,1.7,0,0,1,.553.346,1.553,1.553,0,0,1,.369.534,1.748,1.748,0,0,1,.135.688,1.657,1.657,0,0,1-.285.967,1.584,1.584,0,0,1-.761.592l1.157,2.312a.067.067,0,0,1,0,.076.069.069,0,0,1-.062.032h-.9Zm1.53-5.589a.072.072,0,0,1,.081-.083h.8a.073.073,0,0,1,.081.083v5.507a.072.072,0,0,1-.081.082h-.8a.072.072,0,0,1-.081-.082V36.137Zm9.551,0L202.085,39.4v2.244c0,.039,0,.078-.079.078h-.787a.086.086,0,0,1-.079-.078V39.4l-1.232-2.48h-1.8c-.039,0-.039.039-.039.078v4.646a.085.085,0,0,1-.079.078H197.2c-.079,0-.118-.04-.118-.078V37c0-.04,0-.078-.04-.078h-1.417c-.078,0-.078,0-.078-.08v-.708c0-.04,0-.078.078-.078h4.8c.04,0,.079.039.118.078l1.063,2.205h.04l1.1-2.205a.083.083,0,0,1,.079-.078h.787c.078,0,.118.039.078.078Zm-.621,4.657a.072.072,0,0,1,.081-.083l.761,0a.072.072,0,0,1,.081.083v.91a.345.345,0,0,1-.008.1.15.15,0,0,1-.046.074l-.673.72a.162.162,0,0,1-.115.059.074.074,0,0,1-.081-.085V40.793Zm-131.656,8.5a.936.936,0,0,0,.677-.238.961.961,0,0,0,0-1.28.921.921,0,0,0-.677-.244H70.328c-.03,0-.047.016-.047.05v1.662c0,.034.016.05.047.05ZM69.4,52.344a.073.073,0,0,1-.082-.083l0-5.54a.073.073,0,0,1,.082-.083h2.08a2.029,2.029,0,0,1,.735.13,1.722,1.722,0,0,1,.58.361,1.6,1.6,0,0,1,.375.557,1.885,1.885,0,0,1,.136.723,1.929,1.929,0,0,1-.136.73,1.633,1.633,0,0,1-.375.558,1.7,1.7,0,0,1-.58.36,2.025,2.025,0,0,1-.735.131H70.328c-.03,0-.047.016-.047.05l0,2.023a.072.072,0,0,1-.081.083h-.8Zm6.9-3.2a.869.869,0,0,0,.614-.219.87.87,0,0,0,0-1.183.842.842,0,0,0-.614-.217H75.12c-.031,0-.047.016-.047.05V49.1c0,.034.016.05.047.05H76.3Zm.959,3.2a.122.122,0,0,1-.124-.083l-1.063-2.224h-.955c-.031,0-.047.018-.047.052l0,2.174a.073.073,0,0,1-.082.083h-.8a.072.072,0,0,1-.081-.083l0-5.54a.072.072,0,0,1,.081-.083l2.143,0a1.9,1.9,0,0,1,.708.126,1.711,1.711,0,0,1,.556.348,1.53,1.53,0,0,1,.371.537,1.74,1.74,0,0,1,.136.692,1.667,1.667,0,0,1-.286.973,1.6,1.6,0,0,1-.766.6l1.168,2.326a.068.068,0,0,1-.058.108h-.9Zm3.759-.8a1.022,1.022,0,0,0,.66-.2,1.073,1.073,0,0,0,.368-.55,1.355,1.355,0,0,0,.043-.177c.011-.066.02-.15.027-.251s.016-.222.02-.366.01-.313.01-.516,0-.373-.01-.516-.012-.263-.02-.364-.016-.185-.027-.253a1.466,1.466,0,0,0-.043-.176,1.09,1.09,0,0,0-.367-.55,1.054,1.054,0,0,0-.665-.2,1.041,1.041,0,0,0-.665.2,1.136,1.136,0,0,0-.364.55c-.015.05-.03.11-.043.175a1.925,1.925,0,0,0-.034.253c-.008.1-.012.223-.016.364s0,.315,0,.516,0,.375,0,.516.007.266.015.366a1.992,1.992,0,0,0,.034.251,1.753,1.753,0,0,0,.043.176,1.123,1.123,0,0,0,.364.551A1.054,1.054,0,0,0,81.022,51.545Zm0,.89a2.151,2.151,0,0,1-1.234-.348,1.886,1.886,0,0,1-.727-1.029c-.027-.089-.05-.18-.07-.269a2.918,2.918,0,0,1-.046-.31c-.008-.117-.019-.256-.023-.415s-.008-.352-.008-.576,0-.414.008-.574.015-.3.023-.416a2.7,2.7,0,0,1,.047-.31c.019-.09.042-.179.07-.268a1.847,1.847,0,0,1,.722-1.029,2.37,2.37,0,0,1,2.471,0,1.874,1.874,0,0,1,.728,1.028c.027.09.046.178.065.269a2.631,2.631,0,0,1,.047.31c.011.117.019.256.023.415s.008.352.008.574,0,.416-.008.576-.012.3-.023.416a3.022,3.022,0,0,1-.047.31c-.02.089-.038.18-.066.268a1.862,1.862,0,0,1-.723,1.03A2.162,2.162,0,0,1,81.022,52.435Zm3.066-1.376c-.027-.09-.05-.18-.07-.27a2.936,2.936,0,0,1-.046-.309c-.008-.117-.019-.256-.023-.415s-.008-.352-.008-.576,0-.414.008-.575.015-.3.023-.415a2.665,2.665,0,0,1,.047-.31c.019-.09.042-.18.07-.269a1.848,1.848,0,0,1,.722-1.028,2.186,2.186,0,0,1,1.257-.349,2.3,2.3,0,0,1,.708.1,2.2,2.2,0,0,1,.565.265,1.623,1.623,0,0,1,.406.385,1.894,1.894,0,0,1,.25.458.083.083,0,0,1-.03.118l-.685.31a.073.073,0,0,1-.1-.04,1.535,1.535,0,0,0-.448-.527,1.161,1.161,0,0,0-.67-.18,1.068,1.068,0,0,0-.676.2,1.119,1.119,0,0,0-.368.55,1.678,1.678,0,0,0-.042.175,1.9,1.9,0,0,0-.035.254c-.008.1-.012.222-.016.363s0,.316,0,.517,0,.375,0,.516.008.264.016.365a1.843,1.843,0,0,0,.035.252,1.292,1.292,0,0,0,.042.175,1.11,1.11,0,0,0,.368.552,1.088,1.088,0,0,0,.68.2,1.152,1.152,0,0,0,.646-.182.955.955,0,0,0,.4-.532,2.619,2.619,0,0,0,.065-.315,3.258,3.258,0,0,0,.023-.424c0-.034-.015-.05-.05-.05h-.913c-.054,0-.08-.028-.08-.085v-.67c0-.056.026-.084.08-.084h1.833c.055,0,.082.026.082.081v.5a6.846,6.846,0,0,1-.031.692,3.308,3.308,0,0,1-.1.56,1.876,1.876,0,0,1-.72,1.037,2.078,2.078,0,0,1-1.233.365,2.194,2.194,0,0,1-1.257-.348,1.887,1.887,0,0,1-.727-1.028Zm7.235-1.917a.858.858,0,0,0,.615-.217.767.767,0,0,0,.232-.587.778.778,0,0,0-.232-.6.86.86,0,0,0-.615-.218H90.14c-.031,0-.046.015-.046.05v1.518c0,.035.015.05.046.05Zm.96,3.2a.121.121,0,0,1-.124-.083l-1.064-2.225H90.14c-.031,0-.046.017-.046.052l0,2.173a.073.073,0,0,1-.082.083h-.8a.072.072,0,0,1-.081-.083l0-5.54a.072.072,0,0,1,.081-.083h2.142a1.92,1.92,0,0,1,.708.126,1.717,1.717,0,0,1,.556.348,1.549,1.549,0,0,1,.372.538,1.729,1.729,0,0,1,.135.692,1.657,1.657,0,0,1-.286.972,1.6,1.6,0,0,1-.765.6l1.167,2.326a.065.065,0,0,1,0,.075.066.066,0,0,1-.062.033h-.9Zm4.462-2.073-.735-2.216h-.023l-.742,2.216Zm-1.214-3.55a.1.1,0,0,1,.1-.083h.75a.107.107,0,0,1,.109.084l1.876,5.54c.018.055,0,.082-.055.082h-.8a.1.1,0,0,1-.105-.083l-.371-1.107H94.95l-.36,1.108a.107.107,0,0,1-.108.082h-.789c-.054,0-.073-.027-.058-.083l1.895-5.54Zm3.51,0q0-.084.081-.084h.727a.134.134,0,0,1,.14.082l1.523,3.517h.031l1.5-3.517a.128.128,0,0,1,.139-.083h.716a.073.073,0,0,1,.081.083l0,5.54a.072.072,0,0,1-.081.082h-.707a.072.072,0,0,1-.082-.082l0-3.493h-.034L101.9,51.449a.156.156,0,0,1-.151.109h-.476a.172.172,0,0,1-.158-.109l-1.172-2.686h-.03l0,3.493a.074.074,0,0,1-.085.084h-.708a.072.072,0,0,1-.081-.082l0-5.54Zm6.08,0a.072.072,0,0,1,.081-.083h.727a.137.137,0,0,1,.14.084l1.523,3.517h.031l1.5-3.517a.129.129,0,0,1,.139-.084h.715q.081,0,.081.084l0,5.54a.072.072,0,0,1-.081.082h-.707a.072.072,0,0,1-.082-.083l0-3.492h-.034l-1.172,2.686a.155.155,0,0,1-.151.108h-.476a.172.172,0,0,1-.159-.108l-1.171-2.686H106l0,3.492c0,.056-.027.083-.085.083h-.708c-.054,0-.081-.026-.081-.083l0-5.54Zm6.08,0q0-.084.081-.084h.8a.072.072,0,0,1,.081.083l0,5.54a.072.072,0,0,1-.081.083l-.8,0a.072.072,0,0,1-.081-.083Zm2.1,0q0-.084.081-.084h.75a.157.157,0,0,1,.139.084l2.259,3.936h.031V46.714q0-.084.081-.084h.708a.076.076,0,0,1,.085.084l0,5.54a.074.074,0,0,1-.085.082h-.739a.15.15,0,0,1-.14-.082l-2.269-3.93h-.031l0,3.93c0,.056-.028.082-.086.082h-.707a.072.072,0,0,1-.081-.082l0-5.54Zm5.254,4.339c-.027-.09-.05-.18-.07-.269a3,3,0,0,1-.046-.31c-.008-.117-.019-.256-.023-.415s-.008-.352-.008-.576,0-.414.008-.575.015-.3.023-.415a2.958,2.958,0,0,1,.046-.31c.02-.09.043-.18.07-.269a1.856,1.856,0,0,1,.724-1.028,2.19,2.19,0,0,1,1.256-.348,2.329,2.329,0,0,1,.708.1,2.177,2.177,0,0,1,.564.265,1.628,1.628,0,0,1,.407.385,1.933,1.933,0,0,1,.251.458.084.084,0,0,1-.031.118l-.685.31a.073.073,0,0,1-.1-.04,1.525,1.525,0,0,0-.448-.527,1.158,1.158,0,0,0-.669-.18,1.069,1.069,0,0,0-.677.2,1.119,1.119,0,0,0-.368.55,1.432,1.432,0,0,0-.042.176,1.715,1.715,0,0,0-.035.253c-.008.1-.011.222-.015.363s0,.316,0,.517,0,.375,0,.516.007.265.015.365a1.7,1.7,0,0,0,.035.252,1.348,1.348,0,0,0,.042.176,1.1,1.1,0,0,0,.368.55,1.082,1.082,0,0,0,.68.2,1.15,1.15,0,0,0,.646-.182.945.945,0,0,0,.4-.531,2.319,2.319,0,0,0,.066-.316,3.252,3.252,0,0,0,.023-.423c0-.035-.015-.05-.05-.05h-.913a.074.074,0,0,1-.081-.085v-.671q0-.084.081-.084h1.834c.054,0,.08.028.08.084v.495a6.849,6.849,0,0,1-.03.692,3.232,3.232,0,0,1-.1.559,1.88,1.88,0,0,1-.719,1.036,2.075,2.075,0,0,1-1.234.366,2.2,2.2,0,0,1-1.257-.348,1.888,1.888,0,0,1-.727-1.03Zm8.507-2.411a3.363,3.363,0,0,0,.318-.27,1.546,1.546,0,0,0,.182-.208.6.6,0,0,0,.088-.176.634.634,0,0,0,.024-.176.484.484,0,0,0-.144-.357.5.5,0,0,0-.367-.147.518.518,0,0,0-.383.147.488.488,0,0,0-.146.365.551.551,0,0,0,.015.143.692.692,0,0,0,.062.155,2.159,2.159,0,0,0,.127.215c.058.082.136.187.224.309Zm-.87,2.208a.758.758,0,0,0,.2.553.739.739,0,0,0,.56.21.877.877,0,0,0,.43-.113,2.337,2.337,0,0,0,.471-.416l-.978-1.292a2.119,2.119,0,0,0-.541.57.974.974,0,0,0-.144.488Zm-.846.05a1.732,1.732,0,0,1,.232-.864,3.193,3.193,0,0,1,.82-.882c-.116-.15-.213-.284-.291-.4a2.425,2.425,0,0,1-.193-.323,1.375,1.375,0,0,1-.1-.29,1.188,1.188,0,0,1-.035-.3,1.305,1.305,0,0,1,.108-.524,1.235,1.235,0,0,1,.294-.416,1.274,1.274,0,0,1,.441-.272,1.477,1.477,0,0,1,.537-.1,1.43,1.43,0,0,1,.553.1,1.36,1.36,0,0,1,.43.282,1.261,1.261,0,0,1,.27.41,1.238,1.238,0,0,1,.1.487,1.2,1.2,0,0,1-.209.709,2.52,2.52,0,0,1-.3.356,4.94,4.94,0,0,1-.452.4l.862,1.14.553-.678a.075.075,0,0,1,.116-.008l.449.4a.073.073,0,0,1,.015.116l-.649.814.193.253a.436.436,0,0,0,.159.14.366.366,0,0,0,.177.044h.124a.073.073,0,0,1,.081.083v.673c0,.056-.026.083-.081.083h-.267a1.405,1.405,0,0,1-.247-.021.6.6,0,0,1-.193-.072.956.956,0,0,1-.182-.133,1.8,1.8,0,0,1-.186-.219l-.139-.176a2.433,2.433,0,0,1-.685.545,1.654,1.654,0,0,1-.758.169,1.873,1.873,0,0,1-.672-.114,1.274,1.274,0,0,1-.48-.32,1.382,1.382,0,0,1-.29-.485,1.723,1.723,0,0,1-.1-.609Zm8.084.5c0,.033.015.05.046.05h.824a1.444,1.444,0,0,0,.746-.168.933.933,0,0,0,.4-.555.613.613,0,0,0,.043-.147c.011-.06.019-.135.027-.226s.015-.209.023-.35.008-.313.008-.52,0-.38-.008-.52-.015-.258-.023-.353-.016-.17-.027-.226a.591.591,0,0,0-.043-.143.918.918,0,0,0-.4-.55,1.433,1.433,0,0,0-.746-.169h-.824c-.031,0-.046.016-.046.05v3.827Zm-.963-4.683q0-.084.081-.084h1.98a1.738,1.738,0,0,1,1.852,1.265c.02.074.039.151.054.23s.031.182.047.3.023.261.027.431.008.38.008.624,0,.455-.008.627-.016.313-.027.431-.027.217-.047.3-.034.159-.054.232a1.736,1.736,0,0,1-1.848,1.269h-1.98a.072.072,0,0,1-.081-.083l0-5.54Zm7.2,2.423a.864.864,0,0,0,.615-.217.77.77,0,0,0,.232-.588.78.78,0,0,0-.232-.6.86.86,0,0,0-.615-.218h-1.183c-.031,0-.047.016-.047.05v1.518c0,.035.016.05.047.05h1.183Zm.959,3.2a.122.122,0,0,1-.124-.083l-1.063-2.226h-.955c-.031,0-.047.017-.047.052l0,2.174a.072.072,0,0,1-.081.083h-.8a.072.072,0,0,1-.081-.083l0-5.54a.073.073,0,0,1,.082-.084h2.142a1.924,1.924,0,0,1,.708.126,1.728,1.728,0,0,1,.556.348,1.563,1.563,0,0,1,.372.538,1.75,1.75,0,0,1,.135.692,1.67,1.67,0,0,1-.286.973,1.6,1.6,0,0,1-.766.6l1.168,2.325a.07.07,0,0,1,0,.076.071.071,0,0,1-.062.033h-.9Zm3.759-.8a1.029,1.029,0,0,0,.661-.2,1.088,1.088,0,0,0,.368-.551,1.586,1.586,0,0,0,.042-.176,2.444,2.444,0,0,0,.027-.251c.008-.1.016-.223.02-.366s.011-.313.011-.516,0-.373-.011-.516-.012-.263-.02-.364a2.528,2.528,0,0,0-.027-.253,1.635,1.635,0,0,0-.042-.176,1.094,1.094,0,0,0-.368-.55,1.048,1.048,0,0,0-.665-.2,1.037,1.037,0,0,0-.665.2,1.133,1.133,0,0,0-.364.549,1.643,1.643,0,0,0-.042.176,1.735,1.735,0,0,0-.035.253c-.008.1-.012.222-.015.364s0,.315,0,.516,0,.375,0,.516.007.265.015.366a1.647,1.647,0,0,0,.035.25,1.6,1.6,0,0,0,.042.177,1.13,1.13,0,0,0,.364.551,1.062,1.062,0,0,0,.669.2Zm0,.89a2.154,2.154,0,0,1-1.234-.348,1.893,1.893,0,0,1-.727-1.029c-.027-.089-.05-.18-.069-.269a2.7,2.7,0,0,1-.047-.31c-.008-.117-.019-.257-.023-.415s-.008-.352-.008-.576,0-.414.008-.574.015-.3.023-.416a2.7,2.7,0,0,1,.047-.31c.019-.09.042-.18.069-.268a1.858,1.858,0,0,1,.723-1.029,2.369,2.369,0,0,1,2.472,0,1.884,1.884,0,0,1,.727,1.029c.027.089.046.178.065.268a2.7,2.7,0,0,1,.047.31c.012.118.019.257.023.416s.008.352.008.574,0,.416-.008.576-.011.3-.023.416a2.766,2.766,0,0,1-.047.31c-.019.088-.038.18-.065.268a1.869,1.869,0,0,1-.724,1.029,2.155,2.155,0,0,1-1.237.348Zm3.082-5.718c0-.056.026-.084.081-.084h.75a.157.157,0,0,1,.139.084l2.258,3.937h.031V46.708a.074.074,0,0,1,.082-.084h.707a.076.076,0,0,1,.086.084l0,5.54a.076.076,0,0,1-.086.083h-.738a.152.152,0,0,1-.14-.084l-2.27-3.929h-.03l0,3.93a.074.074,0,0,1-.085.083h-.707c-.055,0-.081-.028-.081-.084l0-5.54Zm5.275,0q0-.084.081-.084H156.3q.081,0,.081.084v.72c0,.057-.027.086-.081.086h-2.545c-.031,0-.046.015-.046.05v1.392c0,.035.015.05.046.05h2.147c.054,0,.081.03.081.086v.72c0,.057-.027.084-.081.084h-2.147c-.031,0-.046.018-.046.05v1.445c0,.033.015.05.046.05H156.3a.075.075,0,0,1,.085.083v.723q0,.084-.081.084h-3.473q-.081,0-.081-.084l0-5.54Zm6.31,5.713a2.816,2.816,0,0,1-.6-.058,3.288,3.288,0,0,1-.557-.158,2.907,2.907,0,0,1-.491-.24,2.283,2.283,0,0,1-.387-.3.088.088,0,0,1-.016-.125l.5-.6a.066.066,0,0,1,.112-.01,3.16,3.16,0,0,0,.3.219,2.483,2.483,0,0,0,.36.194,2.451,2.451,0,0,0,.406.137,1.771,1.771,0,0,0,.449.054,1.13,1.13,0,0,0,.765-.232.739.739,0,0,0,.275-.592.646.646,0,0,0-.221-.506,1.544,1.544,0,0,0-.793-.283l-.29-.038a2.287,2.287,0,0,1-1.241-.517,1.443,1.443,0,0,1-.429-1.111,1.864,1.864,0,0,1,.128-.706A1.56,1.56,0,0,1,157.7,47a1.7,1.7,0,0,1,.592-.348,2.427,2.427,0,0,1,.778-.123,3.129,3.129,0,0,1,.99.155,2.664,2.664,0,0,1,.8.415.085.085,0,0,1,.016.118l-.391.62a.077.077,0,0,1-.116.026,2.973,2.973,0,0,0-.657-.337,2.113,2.113,0,0,0-.67-.108.917.917,0,0,0-.649.217.735.735,0,0,0-.225.549.63.63,0,0,0,.228.491,1.614,1.614,0,0,0,.794.279l.293.042a2.235,2.235,0,0,1,1.23.516,1.482,1.482,0,0,1,.425,1.137,1.935,1.935,0,0,1-.131.706,1.461,1.461,0,0,1-.391.56,1.93,1.93,0,0,1-.657.37,2.732,2.732,0,0,1-.9.135Z"/><path class="a" d="M38.526,52.227a.3.3,0,0,1-.1.586,3.619,3.619,0,0,1-.439-.028l-8.14-1.005a.3.3,0,0,0-.251.086l-1.1,1.1a.305.305,0,0,1-.38.04q-.585-.384-1.161-.8a30.566,30.566,0,0,1-2.784-2.254.3.3,0,0,1,.333-.494,16.259,16.259,0,0,0,4.062,1.135c2.534.418,5.243.532,7.573,1a18.637,18.637,0,0,1,2.382.636Z"/><path class="a" d="M39.169,46.89a.439.439,0,0,1-.453.725l-.027-.009a11.946,11.946,0,0,0-1.668-.4c-.882-.154-1.9-.265-3.125-.371-5.342-.468-10.07-.417-14.72-2.032l-.027-.009a7.584,7.584,0,0,1-3.887-3.087l-.158-.248-2.242-3.5a.439.439,0,0,1,.491-.659c.4.115.813.222,1.227.324,3.311.812,6.926,1.262,10.5,2.134,5.933,1.45,10,3.594,12.855,6q.649.548,1.22,1.114l.018.018Z"/><path class="a" d="M45.1,42.125a.3.3,0,0,1-.431.389,15.778,15.778,0,0,0-4.683-2.4C32.4,37.542,19.67,36.363,9.8,30.15A25.465,25.465,0,0,1,6.8,28.031a9.633,9.633,0,0,1-1.011-1.117,62.27,62.27,0,0,1-5.216-8.14,5.138,5.138,0,0,1-.562-2.412.294.294,0,0,1,.493-.176c.373.35.754.685,1.145,1.009,6.486,5.369,15.476,7.317,25.654,11.774C38.809,34.006,42.123,37.421,45.1,42.125Z"/><path class="a" d="M46.131,35.452a.281.281,0,0,1-.472.3,23.42,23.42,0,0,0-7.521-5.662C25.858,23.523,12.4,22.056,2.524,11.674q-.183-.192-.364-.388a1.016,1.016,0,0,1,.274-1.593A3.549,3.549,0,0,1,4.054,9.3h.095l1.47.039a5.892,5.892,0,0,0,2.39-.44.283.283,0,0,0,.124-.423l-.444-.63A3.557,3.557,0,0,1,7.3,7.129.9.9,0,0,1,8.637,6.046l.051.034c9.7,6.52,20.7,11.164,29.563,19a30.581,30.581,0,0,1,7.88,10.367Z"/><path class="a" d="M58.551,44.245,48.39,46.812a1.021,1.021,0,0,1-1.205-1.352l.01-.023c.542-1.427,1.191-2.91,1.867-4.474,2.7-6.233-.1-10.337-3.745-14.238-8.684-9.293-21.8-16.013-32.554-23.74a1.031,1.031,0,0,1,.264-1.812l2.482-.86A3.574,3.574,0,0,1,18.6.675l14.456,9.21a1.015,1.015,0,0,0,.43.153l6.256.742a3.578,3.578,0,0,1,2.487,1.47L53.928,28a1.027,1.027,0,0,0,.733.41l6.476.562c.05,0,.1.01.151.016a1.022,1.022,0,0,1,.8.606A14.117,14.117,0,0,1,63.3,34.581a11.918,11.918,0,0,1-4.326,9.44,1,1,0,0,1-.425.224Z"/></g></svg>